<svg xmlns="http://www.w3.org/2000/svg" id="Layer_1" width="792" height="1224" viewBox="0 0 792 1224"><path fill="#4d4f5c" d="M417.9 558.1V420c19.2 8 31.2 19.3 39 31.4a65.2 65.2 0 0 0 26 22.7 79.6 79.6 0 0 0 35.8 8.3c54.4 0 88-50.8 60.4-91.1s-77.7-77.8-161.2-90.6v-84.6a53.3 53.3 0 0 0-53-53 53.1 53.1 0 0 0-53 53v81.5c-120 11-211.6 74.7-211.6 190.2 0 81.9 33.1 150.8 211.6 190v162.7c-39.6-9-64.1-27.9-79.4-53.6-11.5-19.2-33.8-31.9-58.9-31.9h-12.1c-47.1 0-79.3 41.6-60 78.5 34.3 65.6 100.8 112.8 210.4 123.1v81.9a53 53 0 0 0 106 0v-82.7C570.6 939.3 634 857.2 634 758.6c0-86.5-30.6-156.3-216.1-200.5zm-173.4-84.8c0-34 22.6-55.9 67.4-62.8v123.6c-53.7-15.9-67.4-33.4-67.4-60.8zm173.4 369.9V702c56.6 18.3 71 40.3 71 72.9s-16.7 59.3-71 68.3z"/></svg>