<svg xmlns="http://www.w3.org/2000/svg"><symbol id="3-drop" viewBox="0 0 1490.5 938.4"><path fill="#4d4f5c" d="M926.6 635.6c0 104.1-84.4 188.5-188.5 188.5s-188.5-84.4-188.5-188.5 188.5-463.5 188.5-463.5 188.5 359.4 188.5 463.5zm508.7 0c0 104.1-84.4 188.5-188.5 188.5s-188.4-84.4-188.4-188.5 188.4-463.5 188.4-463.5 188.5 359.4 188.5 463.5zm-1017.5 0c0 104.1-84.3 188.5-188.4 188.5S40.9 739.7 40.9 635.6s188.5-463.5 188.5-463.5 188.4 359.4 188.4 463.5z"/></symbol><symbol id="dollar-icon" viewBox="0 0 792 1224"><path fill="#4d4f5c" d="M417.9 558.1V420c19.2 8 31.2 19.3 39 31.4a65.2 65.2 0 0 0 26 22.7 79.6 79.6 0 0 0 35.8 8.3c54.4 0 88-50.8 60.4-91.1s-77.7-77.8-161.2-90.6v-84.6a53.3 53.3 0 0 0-53-53 53.1 53.1 0 0 0-53 53v81.5c-120 11-211.6 74.7-211.6 190.2 0 81.9 33.1 150.8 211.6 190v162.7c-39.6-9-64.1-27.9-79.4-53.6-11.5-19.2-33.8-31.9-58.9-31.9h-12.1c-47.1 0-79.3 41.6-60 78.5 34.3 65.6 100.8 112.8 210.4 123.1v81.9a53 53 0 0 0 106 0v-82.7C570.6 939.3 634 857.2 634 758.6c0-86.5-30.6-156.3-216.1-200.5zm-173.4-84.8c0-34 22.6-55.9 67.4-62.8v123.6c-53.7-15.9-67.4-33.4-67.4-60.8zm173.4 369.9V702c56.6 18.3 71 40.3 71 72.9s-16.7 59.3-71 68.3z"/></symbol><symbol id="dollar-icon" viewBox="0 0 792 1224"><path fill="#4d4f5c" d="M417.9 558.1V420c19.2 8 31.2 19.3 39 31.4a65.2 65.2 0 0 0 26 22.7 79.6 79.6 0 0 0 35.8 8.3c54.4 0 88-50.8 60.4-91.1s-77.7-77.8-161.2-90.6v-84.6a53.3 53.3 0 0 0-53-53 53.1 53.1 0 0 0-53 53v81.5c-120 11-211.6 74.7-211.6 190.2 0 81.9 33.1 150.8 211.6 190v162.7c-39.6-9-64.1-27.9-79.4-53.6-11.5-19.2-33.8-31.9-58.9-31.9h-12.1c-47.1 0-79.3 41.6-60 78.5 34.3 65.6 100.8 112.8 210.4 123.1v81.9a53 53 0 0 0 106 0v-82.7C570.6 939.3 634 857.2 634 758.6c0-86.5-30.6-156.3-216.1-200.5zm-173.4-84.8c0-34 22.6-55.9 67.4-62.8v123.6c-53.7-15.9-67.4-33.4-67.4-60.8zm173.4 369.9V702c56.6 18.3 71 40.3 71 72.9s-16.7 59.3-71 68.3z"/></symbol><symbol id="heart-icon" viewBox="0 0 792 1224"><path fill="#4d4f5c" d="M771.6 625.5c-66.3 195.7-374.1 374.2-374.1 374.2S95.8 819.1 23.4 625.5C-54 418.9 236.7 242.6 396.8 535.3c123.9-299.9 444.8-116.4 374.8 90.2z"/></symbol><symbol id="dollar-icon" viewBox="0 0 792 1224"><path fill="#4d4f5c" d="M417.9 558.1V420c19.2 8 31.2 19.3 39 31.4a65.2 65.2 0 0 0 26 22.7 79.6 79.6 0 0 0 35.8 8.3c54.4 0 88-50.8 60.4-91.1s-77.7-77.8-161.2-90.6v-84.6a53.3 53.3 0 0 0-53-53 53.1 53.1 0 0 0-53 53v81.5c-120 11-211.6 74.7-211.6 190.2 0 81.9 33.1 150.8 211.6 190v162.7c-39.6-9-64.1-27.9-79.4-53.6-11.5-19.2-33.8-31.9-58.9-31.9h-12.1c-47.1 0-79.3 41.6-60 78.5 34.3 65.6 100.8 112.8 210.4 123.1v81.9a53 53 0 0 0 106 0v-82.7C570.6 939.3 634 857.2 634 758.6c0-86.5-30.6-156.3-216.1-200.5zm-173.4-84.8c0-34 22.6-55.9 67.4-62.8v123.6c-53.7-15.9-67.4-33.4-67.4-60.8zm173.4 369.9V702c56.6 18.3 71 40.3 71 72.9s-16.7 59.3-71 68.3z"/></symbol><symbol id="heart-icon" viewBox="0 0 792 1224"><path fill="#4d4f5c" d="M771.6 625.5c-66.3 195.7-374.1 374.2-374.1 374.2S95.8 819.1 23.4 625.5C-54 418.9 236.7 242.6 396.8 535.3c123.9-299.9 444.8-116.4 374.8 90.2z"/></symbol><symbol id="one-drop" viewBox="0 0 486.3 929.4"><path fill="#4d4f5c" d="M442 549.5C442 653.6 357.6 738 253.5 738S65.1 653.6 65.1 549.5 253.5 86 253.5 86 442 445.4 442 549.5z"/></symbol><symbol id="dollar-icon" viewBox="0 0 792 1224"><path fill="#4d4f5c" d="M417.9 558.1V420c19.2 8 31.2 19.3 39 31.4a65.2 65.2 0 0 0 26 22.7 79.6 79.6 0 0 0 35.8 8.3c54.4 0 88-50.8 60.4-91.1s-77.7-77.8-161.2-90.6v-84.6a53.3 53.3 0 0 0-53-53 53.1 53.1 0 0 0-53 53v81.5c-120 11-211.6 74.7-211.6 190.2 0 81.9 33.1 150.8 211.6 190v162.7c-39.6-9-64.1-27.9-79.4-53.6-11.5-19.2-33.8-31.9-58.9-31.9h-12.1c-47.1 0-79.3 41.6-60 78.5 34.3 65.6 100.8 112.8 210.4 123.1v81.9a53 53 0 0 0 106 0v-82.7C570.6 939.3 634 857.2 634 758.6c0-86.5-30.6-156.3-216.1-200.5zm-173.4-84.8c0-34 22.6-55.9 67.4-62.8v123.6c-53.7-15.9-67.4-33.4-67.4-60.8zm173.4 369.9V702c56.6 18.3 71 40.3 71 72.9s-16.7 59.3-71 68.3z"/></symbol><symbol id="heart-icon" viewBox="0 0 792 1224"><path fill="#4d4f5c" d="M771.6 625.5c-66.3 195.7-374.1 374.2-374.1 374.2S95.8 819.1 23.4 625.5C-54 418.9 236.7 242.6 396.8 535.3c123.9-299.9 444.8-116.4 374.8 90.2z"/></symbol><symbol id="one-drop" viewBox="0 0 486.3 929.4"><path fill="#4d4f5c" d="M442 549.5C442 653.6 357.6 738 253.5 738S65.1 653.6 65.1 549.5 253.5 86 253.5 86 442 445.4 442 549.5z"/></symbol><symbol id="one-sun" viewBox="0 0 517.9 524.4"><circle cx="260.2" cy="268.8" r="106.7" fill="#4d4f5c"/><path fill="#4d4f5c" d="M255.9 67.5l-18.6 80.8a2 2 0 0 0 2 2.5h37.2a2 2 0 0 0 2-2.5l-18.6-80.8a2.1 2.1 0 0 0-4 0zm-141.1 62l44 70.3a2 2 0 0 0 3.2.3l26.3-26.3a2 2 0 0 0-.3-3.2l-70.3-44a2.1 2.1 0 0 0-2.9 2.9zM58.9 273.1l80.8 18.6a2.1 2.1 0 0 0 2.5-2.1v-37.2a2 2 0 0 0-2.5-2L58.9 269a2.1 2.1 0 0 0 0 4.1zm62 141l70.2-43.9a2.1 2.1 0 0 0 .4-3.3l-26.3-26.3a2 2 0 0 0-3.2.4l-44 70.3a2.1 2.1 0 0 0 2.9 2.8zm143.5 56l18.6-80.8a2.1 2.1 0 0 0-2-2.6h-37.2a2.1 2.1 0 0 0-2 2.6l18.6 80.8a2.1 2.1 0 0 0 4 0zm141.1-62l-44-70.3a2.1 2.1 0 0 0-3.2-.4L332 363.7a2.1 2.1 0 0 0 .4 3.3l70.2 43.9a2.1 2.1 0 0 0 2.9-2.8zm55.9-143.6l-80.7-18.6a2.1 2.1 0 0 0-2.6 2v37.2a2.1 2.1 0 0 0 2.6 2.1l80.7-18.6a2.1 2.1 0 0 0 0-4.1zm-61.9-141.1l-70.3 44a2.1 2.1 0 0 0-.4 3.2l26.3 26.3a2.1 2.1 0 0 0 3.3-.3l43.9-70.3a2.1 2.1 0 0 0-2.8-2.9zM326 101.2l-35.2 49.5a1.5 1.5 0 0 0 .6 2.3l25.2 10.4a1.5 1.5 0 0 0 2.1-1.2l10.1-59.9a1.5 1.5 0 0 0-2.8-1.1zm-137.8 2.5l10.1 59.9a1.5 1.5 0 0 0 2.1 1.2l25.2-10.5a1.5 1.5 0 0 0 .6-2.3l-35.3-49.5a1.5 1.5 0 0 0-2.7 1.2zm-95.7 99.2l49.5 35.3a1.5 1.5 0 0 0 2.3-.7l10.5-25.2a1.5 1.5 0 0 0-1.2-2.1l-59.9-10a1.5 1.5 0 0 0-1.2 2.7zm2.6 137.8l59.9-10a1.6 1.6 0 0 0 1.2-2.1l-10.5-25.2a1.6 1.6 0 0 0-2.3-.7L93.9 338a1.5 1.5 0 0 0 1.2 2.7zm99.2 95.7l35.3-49.5a1.6 1.6 0 0 0-.7-2.3l-25.2-10.4a1.5 1.5 0 0 0-2.1 1.1l-10 60a1.5 1.5 0 0 0 2.7 1.1zm137.8-2.5l-10-60a1.5 1.5 0 0 0-2.1-1.1l-25.2 10.4a1.5 1.5 0 0 0-.7 2.3l35.3 49.5a1.5 1.5 0 0 0 2.7-1.1zm95.7-99.3l-49.5-35.2a1.5 1.5 0 0 0-2.3.6l-10.4 25.2a1.5 1.5 0 0 0 1.1 2.1l60 10.1a1.6 1.6 0 0 0 1.1-2.8zm-2.5-137.8l-60 10.1a1.5 1.5 0 0 0-1.1 2.1l10.4 25.2a1.5 1.5 0 0 0 2.3.6l49.5-35.2a1.5 1.5 0 0 0-1.1-2.8z"/></symbol><symbol id="dollar-icon" viewBox="0 0 792 1224"><path fill="#4d4f5c" d="M417.9 558.1V420c19.2 8 31.2 19.3 39 31.4a65.2 65.2 0 0 0 26 22.7 79.6 79.6 0 0 0 35.8 8.3c54.4 0 88-50.8 60.4-91.1s-77.7-77.8-161.2-90.6v-84.6a53.3 53.3 0 0 0-53-53 53.1 53.1 0 0 0-53 53v81.5c-120 11-211.6 74.7-211.6 190.2 0 81.9 33.1 150.8 211.6 190v162.7c-39.6-9-64.1-27.9-79.4-53.6-11.5-19.2-33.8-31.9-58.9-31.9h-12.1c-47.1 0-79.3 41.6-60 78.5 34.3 65.6 100.8 112.8 210.4 123.1v81.9a53 53 0 0 0 106 0v-82.7C570.6 939.3 634 857.2 634 758.6c0-86.5-30.6-156.3-216.1-200.5zm-173.4-84.8c0-34 22.6-55.9 67.4-62.8v123.6c-53.7-15.9-67.4-33.4-67.4-60.8zm173.4 369.9V702c56.6 18.3 71 40.3 71 72.9s-16.7 59.3-71 68.3z"/></symbol><symbol id="one-drop" viewBox="0 0 486.3 929.4"><path fill="#4d4f5c" d="M442 549.5C442 653.6 357.6 738 253.5 738S65.1 653.6 65.1 549.5 253.5 86 253.5 86 442 445.4 442 549.5z"/></symbol><symbol id="heart-icon" viewBox="0 0 792 1224"><path fill="#4d4f5c" d="M771.6 625.5c-66.3 195.7-374.1 374.2-374.1 374.2S95.8 819.1 23.4 625.5C-54 418.9 236.7 242.6 396.8 535.3c123.9-299.9 444.8-116.4 374.8 90.2z"/></symbol><symbol id="one-sun" viewBox="0 0 517.9 524.4"><circle cx="260.2" cy="268.8" r="106.7" fill="#4d4f5c"/><path fill="#4d4f5c" d="M255.9 67.5l-18.6 80.8a2 2 0 0 0 2 2.5h37.2a2 2 0 0 0 2-2.5l-18.6-80.8a2.1 2.1 0 0 0-4 0zm-141.1 62l44 70.3a2 2 0 0 0 3.2.3l26.3-26.3a2 2 0 0 0-.3-3.2l-70.3-44a2.1 2.1 0 0 0-2.9 2.9zM58.9 273.1l80.8 18.6a2.1 2.1 0 0 0 2.5-2.1v-37.2a2 2 0 0 0-2.5-2L58.9 269a2.1 2.1 0 0 0 0 4.1zm62 141l70.2-43.9a2.1 2.1 0 0 0 .4-3.3l-26.3-26.3a2 2 0 0 0-3.2.4l-44 70.3a2.1 2.1 0 0 0 2.9 2.8zm143.5 56l18.6-80.8a2.1 2.1 0 0 0-2-2.6h-37.2a2.1 2.1 0 0 0-2 2.6l18.6 80.8a2.1 2.1 0 0 0 4 0zm141.1-62l-44-70.3a2.1 2.1 0 0 0-3.2-.4L332 363.7a2.1 2.1 0 0 0 .4 3.3l70.2 43.9a2.1 2.1 0 0 0 2.9-2.8zm55.9-143.6l-80.7-18.6a2.1 2.1 0 0 0-2.6 2v37.2a2.1 2.1 0 0 0 2.6 2.1l80.7-18.6a2.1 2.1 0 0 0 0-4.1zm-61.9-141.1l-70.3 44a2.1 2.1 0 0 0-.4 3.2l26.3 26.3a2.1 2.1 0 0 0 3.3-.3l43.9-70.3a2.1 2.1 0 0 0-2.8-2.9zM326 101.2l-35.2 49.5a1.5 1.5 0 0 0 .6 2.3l25.2 10.4a1.5 1.5 0 0 0 2.1-1.2l10.1-59.9a1.5 1.5 0 0 0-2.8-1.1zm-137.8 2.5l10.1 59.9a1.5 1.5 0 0 0 2.1 1.2l25.2-10.5a1.5 1.5 0 0 0 .6-2.3l-35.3-49.5a1.5 1.5 0 0 0-2.7 1.2zm-95.7 99.2l49.5 35.3a1.5 1.5 0 0 0 2.3-.7l10.5-25.2a1.5 1.5 0 0 0-1.2-2.1l-59.9-10a1.5 1.5 0 0 0-1.2 2.7zm2.6 137.8l59.9-10a1.6 1.6 0 0 0 1.2-2.1l-10.5-25.2a1.6 1.6 0 0 0-2.3-.7L93.9 338a1.5 1.5 0 0 0 1.2 2.7zm99.2 95.7l35.3-49.5a1.6 1.6 0 0 0-.7-2.3l-25.2-10.4a1.5 1.5 0 0 0-2.1 1.1l-10 60a1.5 1.5 0 0 0 2.7 1.1zm137.8-2.5l-10-60a1.5 1.5 0 0 0-2.1-1.1l-25.2 10.4a1.5 1.5 0 0 0-.7 2.3l35.3 49.5a1.5 1.5 0 0 0 2.7-1.1zm95.7-99.3l-49.5-35.2a1.5 1.5 0 0 0-2.3.6l-10.4 25.2a1.5 1.5 0 0 0 1.1 2.1l60 10.1a1.6 1.6 0 0 0 1.1-2.8zm-2.5-137.8l-60 10.1a1.5 1.5 0 0 0-1.1 2.1l10.4 25.2a1.5 1.5 0 0 0 2.3.6l49.5-35.2a1.5 1.5 0 0 0-1.1-2.8z"/></symbol><symbol id="three-sun" viewBox="0 0 1441.3 594"><circle cx="264.5" cy="261" r="106.7" fill="#4d4f5c"/><path fill="#4d4f5c" d="M260.2 59.7l-18.6 80.8a2 2 0 0 0 2 2.5h37.3a2 2 0 0 0 2-2.5l-18.6-80.8a2.1 2.1 0 0 0-4.1 0zm-141 62l43.9 70.3a2.1 2.1 0 0 0 3.3.3l26.3-26.3a2.1 2.1 0 0 0-.4-3.2l-70.3-44a2.1 2.1 0 0 0-2.8 2.9zm-56 143.6l80.8 18.6a2.1 2.1 0 0 0 2.6-2.1v-37.2a2.1 2.1 0 0 0-2.6-2l-80.8 18.6a2.1 2.1 0 0 0 0 4.1zm62 141l70.3-43.9a2.1 2.1 0 0 0 .3-3.3l-26.3-26.3a2.1 2.1 0 0 0-3.2.4l-44 70.3a2.1 2.1 0 0 0 2.9 2.8zm143.6 56l18.6-80.8a2.1 2.1 0 0 0-2-2.6h-37.3a2.1 2.1 0 0 0-2 2.6l18.6 80.8a2.1 2.1 0 0 0 4.1 0zm141-62L365.9 330a2.2 2.2 0 0 0-3.3-.4l-26.3 26.3a2.2 2.2 0 0 0 .4 3.3l70.3 43.9a2 2 0 0 0 2.8-2.8zm56-143.6L385 238.1a2.1 2.1 0 0 0-2.6 2v37.2a2.1 2.1 0 0 0 2.6 2.1l80.8-18.6a2.1 2.1 0 0 0 0-4.1zm-62-141.1l-70.3 44a2 2 0 0 0-.3 3.2l26.3 26.3a2 2 0 0 0 3.2-.3l44-70.3a2.1 2.1 0 0 0-2.9-2.9zm-73.4-22.2l-35.3 49.5a1.5 1.5 0 0 0 .6 2.3l25.3 10.4a1.4 1.4 0 0 0 2-1.2l10.1-59.9a1.5 1.5 0 0 0-2.7-1.1zm-137.9 2.5l10.1 59.9a1.5 1.5 0 0 0 2.1 1.2l25.2-10.5a1.5 1.5 0 0 0 .7-2.2l-35.3-49.6a1.6 1.6 0 0 0-2.8 1.2zm-95.6 99.2l49.5 35.3a1.5 1.5 0 0 0 2.3-.7l10.4-25.2a1.5 1.5 0 0 0-1.1-2.1l-60-10a1.5 1.5 0 0 0-1.1 2.7zm2.5 137.8l59.9-10a1.5 1.5 0 0 0 1.2-2.1l-10.4-25.2a1.6 1.6 0 0 0-2.3-.7l-49.5 35.3a1.5 1.5 0 0 0 1.1 2.7zm99.2 95.7l35.3-49.5a1.5 1.5 0 0 0-.6-2.3L208 366.4a1.4 1.4 0 0 0-2 1.1l-10.1 60a1.5 1.5 0 0 0 2.7 1.1zm137.9-2.5l-10.1-60a1.5 1.5 0 0 0-2.1-1.1l-25.2 10.4a1.6 1.6 0 0 0-.7 2.3l35.3 49.5a1.5 1.5 0 0 0 2.8-1.1zm95.6-99.3l-49.5-35.2a1.5 1.5 0 0 0-2.3.6l-10.4 25.2a1.5 1.5 0 0 0 1.1 2.1l60 10.1a1.5 1.5 0 0 0 1.1-2.8zM429.6 189l-59.9 10.1a1.5 1.5 0 0 0-1.2 2.1l10.4 25.2a1.5 1.5 0 0 0 2.3.6l49.5-35.2a1.5 1.5 0 0 0-1.1-2.8z"/><circle cx="710.8" cy="261" r="106.7" fill="#4d4f5c"/><path fill="#4d4f5c" d="M706.5 59.7l-18.6 80.8a2.1 2.1 0 0 0 2.1 2.5h37.2a2 2 0 0 0 2-2.5l-18.6-80.8a2.1 2.1 0 0 0-4.1 0zm-141 62l43.9 70.3a2.1 2.1 0 0 0 3.3.3L639 166a2.1 2.1 0 0 0-.4-3.2l-70.3-44a2.1 2.1 0 0 0-2.8 2.9zm-56 143.6l80.8 18.6a2.1 2.1 0 0 0 2.6-2.1v-37.2a2.1 2.1 0 0 0-2.6-2l-80.8 18.6a2.1 2.1 0 0 0 0 4.1zm62 141l70.3-43.9a2.2 2.2 0 0 0 .4-3.3l-26.4-26.3a2.1 2.1 0 0 0-3.2.4l-44 70.3a2.1 2.1 0 0 0 2.9 2.8zm143.6 56l18.6-80.8a2.1 2.1 0 0 0-2-2.6h-37.2a2.1 2.1 0 0 0-2.1 2.6l18.6 80.8a2.1 2.1 0 0 0 4.1 0zm141.1-62l-44-70.3a2.1 2.1 0 0 0-3.2-.4l-26.4 26.3a2.2 2.2 0 0 0 .4 3.3l70.3 43.9a2.1 2.1 0 0 0 2.9-2.8zm55.9-143.6l-80.8-18.6a2 2 0 0 0-2.5 2v37.2a2.1 2.1 0 0 0 2.5 2.1l80.8-18.6a2.1 2.1 0 0 0 0-4.1zm-62-141.1l-70.3 44a2 2 0 0 0-.3 3.2l26.3 26.3a2 2 0 0 0 3.2-.3l44-70.3a2.1 2.1 0 0 0-2.9-2.9zm-73.4-22.2l-35.3 49.5a1.5 1.5 0 0 0 .7 2.3l25.2 10.4a1.4 1.4 0 0 0 2-1.2l10.1-59.9a1.5 1.5 0 0 0-2.7-1.1zm-137.9 2.5l10.1 59.9a1.5 1.5 0 0 0 2.1 1.2l25.2-10.5a1.5 1.5 0 0 0 .7-2.2l-35.3-49.6a1.6 1.6 0 0 0-2.8 1.2zm-95.6 99.2l49.5 35.3a1.5 1.5 0 0 0 2.3-.7l10.4-25.2a1.5 1.5 0 0 0-1.1-2.1l-60-10a1.5 1.5 0 0 0-1.1 2.7zm2.5 137.8l60-10a1.5 1.5 0 0 0 1.1-2.1l-10.4-25.2a1.6 1.6 0 0 0-2.3-.7l-49.5 35.3a1.5 1.5 0 0 0 1.1 2.7zm99.3 95.7l35.2-49.5a1.5 1.5 0 0 0-.6-2.3l-25.2-10.4a1.5 1.5 0 0 0-2.1 1.1l-10.1 60a1.5 1.5 0 0 0 2.8 1.1zm137.8-2.5l-10.1-60a1.5 1.5 0 0 0-2.1-1.1l-25.2 10.4a1.5 1.5 0 0 0-.6 2.3l35.2 49.5a1.5 1.5 0 0 0 2.8-1.1zm95.6-99.3l-49.5-35.2a1.5 1.5 0 0 0-2.3.6l-10.4 25.2a1.5 1.5 0 0 0 1.2 2.1l59.9 10.1a1.5 1.5 0 0 0 1.1-2.8zM875.9 189L816 199.1a1.5 1.5 0 0 0-1.2 2.1l10.4 25.2a1.5 1.5 0 0 0 2.3.6l49.5-35.2a1.5 1.5 0 0 0-1.1-2.8z"/><circle cx="1157.1" cy="261" r="106.7" fill="#4d4f5c"/><path fill="#4d4f5c" d="M1152.8 59.7l-18.6 80.8a2.1 2.1 0 0 0 2.1 2.5h37.2a2 2 0 0 0 2-2.5l-18.6-80.8a2.1 2.1 0 0 0-4.1 0zm-141 62l43.9 70.3a2.1 2.1 0 0 0 3.3.3l26.3-26.3a2 2 0 0 0-.4-3.2l-70.3-44a2.1 2.1 0 0 0-2.8 2.9zm-56 143.6l80.8 18.6a2.1 2.1 0 0 0 2.6-2.1v-37.2a2.1 2.1 0 0 0-2.6-2l-80.8 18.6a2.1 2.1 0 0 0 0 4.1zm62 141l70.3-43.9a2.2 2.2 0 0 0 .4-3.3l-26.3-26.3a2.2 2.2 0 0 0-3.3.4l-43.9 70.3a2 2 0 0 0 2.8 2.8zm143.6 56l18.6-80.8a2.1 2.1 0 0 0-2-2.6h-37.2a2.1 2.1 0 0 0-2.1 2.6l18.6 80.8a2.1 2.1 0 0 0 4.1 0zm141.1-62l-44-70.3a2.1 2.1 0 0 0-3.2-.4l-26.3 26.3a2.1 2.1 0 0 0 .3 3.3l70.3 43.9a2.1 2.1 0 0 0 2.9-2.8zm55.9-143.6l-80.8-18.6a2 2 0 0 0-2.5 2v37.2a2.1 2.1 0 0 0 2.5 2.1l80.8-18.6a2.1 2.1 0 0 0 0-4.1zm-62-141.1l-70.3 44a2 2 0 0 0-.3 3.2l26.3 26.3a2 2 0 0 0 3.2-.3l44-70.3a2.1 2.1 0 0 0-2.9-2.9zM1223 93.4l-35.3 49.5a1.5 1.5 0 0 0 .7 2.3l25.2 10.4a1.5 1.5 0 0 0 2.1-1.2l10-59.9a1.5 1.5 0 0 0-2.7-1.1zm-137.8 2.5l10 59.9a1.5 1.5 0 0 0 2.1 1.2l25.2-10.5a1.5 1.5 0 0 0 .7-2.2l-35.3-49.6a1.5 1.5 0 0 0-2.7 1.2zm-95.7 99.2l49.5 35.3a1.5 1.5 0 0 0 2.3-.7l10.4-25.2a1.5 1.5 0 0 0-1.1-2.1l-60-10a1.5 1.5 0 0 0-1.1 2.7zm2.5 137.8l60-10a1.5 1.5 0 0 0 1.1-2.1l-10.4-25.2a1.6 1.6 0 0 0-2.3-.7l-49.5 35.3a1.5 1.5 0 0 0 1.1 2.7zm99.3 95.7l35.2-49.5a1.5 1.5 0 0 0-.6-2.3l-25.2-10.4a1.5 1.5 0 0 0-2.1 1.1l-10.1 60a1.5 1.5 0 0 0 2.8 1.1zm137.8-2.5l-10.1-60a1.5 1.5 0 0 0-2.1-1.1l-25.2 10.4a1.5 1.5 0 0 0-.6 2.3l35.2 49.5a1.5 1.5 0 0 0 2.8-1.1zm95.6-99.3l-49.5-35.2a1.5 1.5 0 0 0-2.3.6l-10.4 25.2a1.5 1.5 0 0 0 1.2 2.1l59.9 10.1a1.5 1.5 0 0 0 1.1-2.8zm-2.5-137.8l-59.9 10.1a1.5 1.5 0 0 0-1.2 2.1l10.5 25.2a1.4 1.4 0 0 0 2.2.6l49.6-35.2a1.6 1.6 0 0 0-1.2-2.8z"/></symbol><symbol id="dollar-icon" viewBox="0 0 792 1224"><path fill="#4d4f5c" d="M417.9 558.1V420c19.2 8 31.2 19.3 39 31.4a65.2 65.2 0 0 0 26 22.7 79.6 79.6 0 0 0 35.8 8.3c54.4 0 88-50.8 60.4-91.1s-77.7-77.8-161.2-90.6v-84.6a53.3 53.3 0 0 0-53-53 53.1 53.1 0 0 0-53 53v81.5c-120 11-211.6 74.7-211.6 190.2 0 81.9 33.1 150.8 211.6 190v162.7c-39.6-9-64.1-27.9-79.4-53.6-11.5-19.2-33.8-31.9-58.9-31.9h-12.1c-47.1 0-79.3 41.6-60 78.5 34.3 65.6 100.8 112.8 210.4 123.1v81.9a53 53 0 0 0 106 0v-82.7C570.6 939.3 634 857.2 634 758.6c0-86.5-30.6-156.3-216.1-200.5zm-173.4-84.8c0-34 22.6-55.9 67.4-62.8v123.6c-53.7-15.9-67.4-33.4-67.4-60.8zm173.4 369.9V702c56.6 18.3 71 40.3 71 72.9s-16.7 59.3-71 68.3z"/></symbol><symbol id="heart-icon" viewBox="0 0 792 1224"><path fill="#4d4f5c" d="M771.6 625.5c-66.3 195.7-374.1 374.2-374.1 374.2S95.8 819.1 23.4 625.5C-54 418.9 236.7 242.6 396.8 535.3c123.9-299.9 444.8-116.4 374.8 90.2z"/></symbol><symbol id="one-drop" viewBox="0 0 486.3 929.4"><path fill="#4d4f5c" d="M442 549.5C442 653.6 357.6 738 253.5 738S65.1 653.6 65.1 549.5 253.5 86 253.5 86 442 445.4 442 549.5z"/></symbol><symbol id="one-sun" viewBox="0 0 517.9 524.4"><circle cx="260.2" cy="268.8" r="106.7" fill="#4d4f5c"/><path fill="#4d4f5c" d="M255.9 67.5l-18.6 80.8a2 2 0 0 0 2 2.5h37.2a2 2 0 0 0 2-2.5l-18.6-80.8a2.1 2.1 0 0 0-4 0zm-141.1 62l44 70.3a2 2 0 0 0 3.2.3l26.3-26.3a2 2 0 0 0-.3-3.2l-70.3-44a2.1 2.1 0 0 0-2.9 2.9zM58.9 273.1l80.8 18.6a2.1 2.1 0 0 0 2.5-2.1v-37.2a2 2 0 0 0-2.5-2L58.9 269a2.1 2.1 0 0 0 0 4.1zm62 141l70.2-43.9a2.1 2.1 0 0 0 .4-3.3l-26.3-26.3a2 2 0 0 0-3.2.4l-44 70.3a2.1 2.1 0 0 0 2.9 2.8zm143.5 56l18.6-80.8a2.1 2.1 0 0 0-2-2.6h-37.2a2.1 2.1 0 0 0-2 2.6l18.6 80.8a2.1 2.1 0 0 0 4 0zm141.1-62l-44-70.3a2.1 2.1 0 0 0-3.2-.4L332 363.7a2.1 2.1 0 0 0 .4 3.3l70.2 43.9a2.1 2.1 0 0 0 2.9-2.8zm55.9-143.6l-80.7-18.6a2.1 2.1 0 0 0-2.6 2v37.2a2.1 2.1 0 0 0 2.6 2.1l80.7-18.6a2.1 2.1 0 0 0 0-4.1zm-61.9-141.1l-70.3 44a2.1 2.1 0 0 0-.4 3.2l26.3 26.3a2.1 2.1 0 0 0 3.3-.3l43.9-70.3a2.1 2.1 0 0 0-2.8-2.9zM326 101.2l-35.2 49.5a1.5 1.5 0 0 0 .6 2.3l25.2 10.4a1.5 1.5 0 0 0 2.1-1.2l10.1-59.9a1.5 1.5 0 0 0-2.8-1.1zm-137.8 2.5l10.1 59.9a1.5 1.5 0 0 0 2.1 1.2l25.2-10.5a1.5 1.5 0 0 0 .6-2.3l-35.3-49.5a1.5 1.5 0 0 0-2.7 1.2zm-95.7 99.2l49.5 35.3a1.5 1.5 0 0 0 2.3-.7l10.5-25.2a1.5 1.5 0 0 0-1.2-2.1l-59.9-10a1.5 1.5 0 0 0-1.2 2.7zm2.6 137.8l59.9-10a1.6 1.6 0 0 0 1.2-2.1l-10.5-25.2a1.6 1.6 0 0 0-2.3-.7L93.9 338a1.5 1.5 0 0 0 1.2 2.7zm99.2 95.7l35.3-49.5a1.6 1.6 0 0 0-.7-2.3l-25.2-10.4a1.5 1.5 0 0 0-2.1 1.1l-10 60a1.5 1.5 0 0 0 2.7 1.1zm137.8-2.5l-10-60a1.5 1.5 0 0 0-2.1-1.1l-25.2 10.4a1.5 1.5 0 0 0-.7 2.3l35.3 49.5a1.5 1.5 0 0 0 2.7-1.1zm95.7-99.3l-49.5-35.2a1.5 1.5 0 0 0-2.3.6l-10.4 25.2a1.5 1.5 0 0 0 1.1 2.1l60 10.1a1.6 1.6 0 0 0 1.1-2.8zm-2.5-137.8l-60 10.1a1.5 1.5 0 0 0-1.1 2.1l10.4 25.2a1.5 1.5 0 0 0 2.3.6l49.5-35.2a1.5 1.5 0 0 0-1.1-2.8z"/></symbol><symbol id="three-sun" viewBox="0 0 1441.3 594"><circle cx="264.5" cy="261" r="106.7" fill="#4d4f5c"/><path fill="#4d4f5c" d="M260.2 59.7l-18.6 80.8a2 2 0 0 0 2 2.5h37.3a2 2 0 0 0 2-2.5l-18.6-80.8a2.1 2.1 0 0 0-4.1 0zm-141 62l43.9 70.3a2.1 2.1 0 0 0 3.3.3l26.3-26.3a2.1 2.1 0 0 0-.4-3.2l-70.3-44a2.1 2.1 0 0 0-2.8 2.9zm-56 143.6l80.8 18.6a2.1 2.1 0 0 0 2.6-2.1v-37.2a2.1 2.1 0 0 0-2.6-2l-80.8 18.6a2.1 2.1 0 0 0 0 4.1zm62 141l70.3-43.9a2.1 2.1 0 0 0 .3-3.3l-26.3-26.3a2.1 2.1 0 0 0-3.2.4l-44 70.3a2.1 2.1 0 0 0 2.9 2.8zm143.6 56l18.6-80.8a2.1 2.1 0 0 0-2-2.6h-37.3a2.1 2.1 0 0 0-2 2.6l18.6 80.8a2.1 2.1 0 0 0 4.1 0zm141-62L365.9 330a2.2 2.2 0 0 0-3.3-.4l-26.3 26.3a2.2 2.2 0 0 0 .4 3.3l70.3 43.9a2 2 0 0 0 2.8-2.8zm56-143.6L385 238.1a2.1 2.1 0 0 0-2.6 2v37.2a2.1 2.1 0 0 0 2.6 2.1l80.8-18.6a2.1 2.1 0 0 0 0-4.1zm-62-141.1l-70.3 44a2 2 0 0 0-.3 3.2l26.3 26.3a2 2 0 0 0 3.2-.3l44-70.3a2.1 2.1 0 0 0-2.9-2.9zm-73.4-22.2l-35.3 49.5a1.5 1.5 0 0 0 .6 2.3l25.3 10.4a1.4 1.4 0 0 0 2-1.2l10.1-59.9a1.5 1.5 0 0 0-2.7-1.1zm-137.9 2.5l10.1 59.9a1.5 1.5 0 0 0 2.1 1.2l25.2-10.5a1.5 1.5 0 0 0 .7-2.2l-35.3-49.6a1.6 1.6 0 0 0-2.8 1.2zm-95.6 99.2l49.5 35.3a1.5 1.5 0 0 0 2.3-.7l10.4-25.2a1.5 1.5 0 0 0-1.1-2.1l-60-10a1.5 1.5 0 0 0-1.1 2.7zm2.5 137.8l59.9-10a1.5 1.5 0 0 0 1.2-2.1l-10.4-25.2a1.6 1.6 0 0 0-2.3-.7l-49.5 35.3a1.5 1.5 0 0 0 1.1 2.7zm99.2 95.7l35.3-49.5a1.5 1.5 0 0 0-.6-2.3L208 366.4a1.4 1.4 0 0 0-2 1.1l-10.1 60a1.5 1.5 0 0 0 2.7 1.1zm137.9-2.5l-10.1-60a1.5 1.5 0 0 0-2.1-1.1l-25.2 10.4a1.6 1.6 0 0 0-.7 2.3l35.3 49.5a1.5 1.5 0 0 0 2.8-1.1zm95.6-99.3l-49.5-35.2a1.5 1.5 0 0 0-2.3.6l-10.4 25.2a1.5 1.5 0 0 0 1.1 2.1l60 10.1a1.5 1.5 0 0 0 1.1-2.8zM429.6 189l-59.9 10.1a1.5 1.5 0 0 0-1.2 2.1l10.4 25.2a1.5 1.5 0 0 0 2.3.6l49.5-35.2a1.5 1.5 0 0 0-1.1-2.8z"/><circle cx="710.8" cy="261" r="106.7" fill="#4d4f5c"/><path fill="#4d4f5c" d="M706.5 59.7l-18.6 80.8a2.1 2.1 0 0 0 2.1 2.5h37.2a2 2 0 0 0 2-2.5l-18.6-80.8a2.1 2.1 0 0 0-4.1 0zm-141 62l43.9 70.3a2.1 2.1 0 0 0 3.3.3L639 166a2.1 2.1 0 0 0-.4-3.2l-70.3-44a2.1 2.1 0 0 0-2.8 2.9zm-56 143.6l80.8 18.6a2.1 2.1 0 0 0 2.6-2.1v-37.2a2.1 2.1 0 0 0-2.6-2l-80.8 18.6a2.1 2.1 0 0 0 0 4.1zm62 141l70.3-43.9a2.2 2.2 0 0 0 .4-3.3l-26.4-26.3a2.1 2.1 0 0 0-3.2.4l-44 70.3a2.1 2.1 0 0 0 2.9 2.8zm143.6 56l18.6-80.8a2.1 2.1 0 0 0-2-2.6h-37.2a2.1 2.1 0 0 0-2.1 2.6l18.6 80.8a2.1 2.1 0 0 0 4.1 0zm141.1-62l-44-70.3a2.1 2.1 0 0 0-3.2-.4l-26.4 26.3a2.2 2.2 0 0 0 .4 3.3l70.3 43.9a2.1 2.1 0 0 0 2.9-2.8zm55.9-143.6l-80.8-18.6a2 2 0 0 0-2.5 2v37.2a2.1 2.1 0 0 0 2.5 2.1l80.8-18.6a2.1 2.1 0 0 0 0-4.1zm-62-141.1l-70.3 44a2 2 0 0 0-.3 3.2l26.3 26.3a2 2 0 0 0 3.2-.3l44-70.3a2.1 2.1 0 0 0-2.9-2.9zm-73.4-22.2l-35.3 49.5a1.5 1.5 0 0 0 .7 2.3l25.2 10.4a1.4 1.4 0 0 0 2-1.2l10.1-59.9a1.5 1.5 0 0 0-2.7-1.1zm-137.9 2.5l10.1 59.9a1.5 1.5 0 0 0 2.1 1.2l25.2-10.5a1.5 1.5 0 0 0 .7-2.2l-35.3-49.6a1.6 1.6 0 0 0-2.8 1.2zm-95.6 99.2l49.5 35.3a1.5 1.5 0 0 0 2.3-.7l10.4-25.2a1.5 1.5 0 0 0-1.1-2.1l-60-10a1.5 1.5 0 0 0-1.1 2.7zm2.5 137.8l60-10a1.5 1.5 0 0 0 1.1-2.1l-10.4-25.2a1.6 1.6 0 0 0-2.3-.7l-49.5 35.3a1.5 1.5 0 0 0 1.1 2.7zm99.3 95.7l35.2-49.5a1.5 1.5 0 0 0-.6-2.3l-25.2-10.4a1.5 1.5 0 0 0-2.1 1.1l-10.1 60a1.5 1.5 0 0 0 2.8 1.1zm137.8-2.5l-10.1-60a1.5 1.5 0 0 0-2.1-1.1l-25.2 10.4a1.5 1.5 0 0 0-.6 2.3l35.2 49.5a1.5 1.5 0 0 0 2.8-1.1zm95.6-99.3l-49.5-35.2a1.5 1.5 0 0 0-2.3.6l-10.4 25.2a1.5 1.5 0 0 0 1.2 2.1l59.9 10.1a1.5 1.5 0 0 0 1.1-2.8zM875.9 189L816 199.1a1.5 1.5 0 0 0-1.2 2.1l10.4 25.2a1.5 1.5 0 0 0 2.3.6l49.5-35.2a1.5 1.5 0 0 0-1.1-2.8z"/><circle cx="1157.1" cy="261" r="106.7" fill="#4d4f5c"/><path fill="#4d4f5c" d="M1152.8 59.7l-18.6 80.8a2.1 2.1 0 0 0 2.1 2.5h37.2a2 2 0 0 0 2-2.5l-18.6-80.8a2.1 2.1 0 0 0-4.1 0zm-141 62l43.9 70.3a2.1 2.1 0 0 0 3.3.3l26.3-26.3a2 2 0 0 0-.4-3.2l-70.3-44a2.1 2.1 0 0 0-2.8 2.9zm-56 143.6l80.8 18.6a2.1 2.1 0 0 0 2.6-2.1v-37.2a2.1 2.1 0 0 0-2.6-2l-80.8 18.6a2.1 2.1 0 0 0 0 4.1zm62 141l70.3-43.9a2.2 2.2 0 0 0 .4-3.3l-26.3-26.3a2.2 2.2 0 0 0-3.3.4l-43.9 70.3a2 2 0 0 0 2.8 2.8zm143.6 56l18.6-80.8a2.1 2.1 0 0 0-2-2.6h-37.2a2.1 2.1 0 0 0-2.1 2.6l18.6 80.8a2.1 2.1 0 0 0 4.1 0zm141.1-62l-44-70.3a2.1 2.1 0 0 0-3.2-.4l-26.3 26.3a2.1 2.1 0 0 0 .3 3.3l70.3 43.9a2.1 2.1 0 0 0 2.9-2.8zm55.9-143.6l-80.8-18.6a2 2 0 0 0-2.5 2v37.2a2.1 2.1 0 0 0 2.5 2.1l80.8-18.6a2.1 2.1 0 0 0 0-4.1zm-62-141.1l-70.3 44a2 2 0 0 0-.3 3.2l26.3 26.3a2 2 0 0 0 3.2-.3l44-70.3a2.1 2.1 0 0 0-2.9-2.9zM1223 93.4l-35.3 49.5a1.5 1.5 0 0 0 .7 2.3l25.2 10.4a1.5 1.5 0 0 0 2.1-1.2l10-59.9a1.5 1.5 0 0 0-2.7-1.1zm-137.8 2.5l10 59.9a1.5 1.5 0 0 0 2.1 1.2l25.2-10.5a1.5 1.5 0 0 0 .7-2.2l-35.3-49.6a1.5 1.5 0 0 0-2.7 1.2zm-95.7 99.2l49.5 35.3a1.5 1.5 0 0 0 2.3-.7l10.4-25.2a1.5 1.5 0 0 0-1.1-2.1l-60-10a1.5 1.5 0 0 0-1.1 2.7zm2.5 137.8l60-10a1.5 1.5 0 0 0 1.1-2.1l-10.4-25.2a1.6 1.6 0 0 0-2.3-.7l-49.5 35.3a1.5 1.5 0 0 0 1.1 2.7zm99.3 95.7l35.2-49.5a1.5 1.5 0 0 0-.6-2.3l-25.2-10.4a1.5 1.5 0 0 0-2.1 1.1l-10.1 60a1.5 1.5 0 0 0 2.8 1.1zm137.8-2.5l-10.1-60a1.5 1.5 0 0 0-2.1-1.1l-25.2 10.4a1.5 1.5 0 0 0-.6 2.3l35.2 49.5a1.5 1.5 0 0 0 2.8-1.1zm95.6-99.3l-49.5-35.2a1.5 1.5 0 0 0-2.3.6l-10.4 25.2a1.5 1.5 0 0 0 1.2 2.1l59.9 10.1a1.5 1.5 0 0 0 1.1-2.8zm-2.5-137.8l-59.9 10.1a1.5 1.5 0 0 0-1.2 2.1l10.5 25.2a1.4 1.4 0 0 0 2.2.6l49.6-35.2a1.6 1.6 0 0 0-1.2-2.8z"/></symbol><symbol id="two-drop" viewBox="0 0 1014.2 929.4"><path fill="#4d4f5c" d="M414 602.2c0 104.1-84.3 188.5-188.4 188.5S37.1 706.3 37.1 602.2s188.5-463.5 188.5-463.5S414 498.1 414 602.2zm508.8 0c0 104.1-84.4 188.5-188.5 188.5s-188.5-84.4-188.5-188.5 188.5-463.5 188.5-463.5 188.5 359.4 188.5 463.5z"/></symbol><symbol id="heart-icon" viewBox="0 0 792 1224"><path fill="#4d4f5c" d="M771.6 625.5c-66.3 195.7-374.1 374.2-374.1 374.2S95.8 819.1 23.4 625.5C-54 418.9 236.7 242.6 396.8 535.3c123.9-299.9 444.8-116.4 374.8 90.2z"/></symbol><symbol id="dollar-icon" viewBox="0 0 792 1224"><path fill="#4d4f5c" d="M417.9 558.1V420c19.2 8 31.2 19.3 39 31.4a65.2 65.2 0 0 0 26 22.7 79.6 79.6 0 0 0 35.8 8.3c54.4 0 88-50.8 60.4-91.1s-77.7-77.8-161.2-90.6v-84.6a53.3 53.3 0 0 0-53-53 53.1 53.1 0 0 0-53 53v81.5c-120 11-211.6 74.7-211.6 190.2 0 81.9 33.1 150.8 211.6 190v162.7c-39.6-9-64.1-27.9-79.4-53.6-11.5-19.2-33.8-31.9-58.9-31.9h-12.1c-47.1 0-79.3 41.6-60 78.5 34.3 65.6 100.8 112.8 210.4 123.1v81.9a53 53 0 0 0 106 0v-82.7C570.6 939.3 634 857.2 634 758.6c0-86.5-30.6-156.3-216.1-200.5zm-173.4-84.8c0-34 22.6-55.9 67.4-62.8v123.6c-53.7-15.9-67.4-33.4-67.4-60.8zm173.4 369.9V702c56.6 18.3 71 40.3 71 72.9s-16.7 59.3-71 68.3z"/></symbol><symbol id="one-drop" viewBox="0 0 486.3 929.4"><path fill="#4d4f5c" d="M442 549.5C442 653.6 357.6 738 253.5 738S65.1 653.6 65.1 549.5 253.5 86 253.5 86 442 445.4 442 549.5z"/></symbol><symbol id="one-sun" viewBox="0 0 517.9 524.4"><circle cx="260.2" cy="268.8" r="106.7" fill="#4d4f5c"/><path fill="#4d4f5c" d="M255.9 67.5l-18.6 80.8a2 2 0 0 0 2 2.5h37.2a2 2 0 0 0 2-2.5l-18.6-80.8a2.1 2.1 0 0 0-4 0zm-141.1 62l44 70.3a2 2 0 0 0 3.2.3l26.3-26.3a2 2 0 0 0-.3-3.2l-70.3-44a2.1 2.1 0 0 0-2.9 2.9zM58.9 273.1l80.8 18.6a2.1 2.1 0 0 0 2.5-2.1v-37.2a2 2 0 0 0-2.5-2L58.9 269a2.1 2.1 0 0 0 0 4.1zm62 141l70.2-43.9a2.1 2.1 0 0 0 .4-3.3l-26.3-26.3a2 2 0 0 0-3.2.4l-44 70.3a2.1 2.1 0 0 0 2.9 2.8zm143.5 56l18.6-80.8a2.1 2.1 0 0 0-2-2.6h-37.2a2.1 2.1 0 0 0-2 2.6l18.6 80.8a2.1 2.1 0 0 0 4 0zm141.1-62l-44-70.3a2.1 2.1 0 0 0-3.2-.4L332 363.7a2.1 2.1 0 0 0 .4 3.3l70.2 43.9a2.1 2.1 0 0 0 2.9-2.8zm55.9-143.6l-80.7-18.6a2.1 2.1 0 0 0-2.6 2v37.2a2.1 2.1 0 0 0 2.6 2.1l80.7-18.6a2.1 2.1 0 0 0 0-4.1zm-61.9-141.1l-70.3 44a2.1 2.1 0 0 0-.4 3.2l26.3 26.3a2.1 2.1 0 0 0 3.3-.3l43.9-70.3a2.1 2.1 0 0 0-2.8-2.9zM326 101.2l-35.2 49.5a1.5 1.5 0 0 0 .6 2.3l25.2 10.4a1.5 1.5 0 0 0 2.1-1.2l10.1-59.9a1.5 1.5 0 0 0-2.8-1.1zm-137.8 2.5l10.1 59.9a1.5 1.5 0 0 0 2.1 1.2l25.2-10.5a1.5 1.5 0 0 0 .6-2.3l-35.3-49.5a1.5 1.5 0 0 0-2.7 1.2zm-95.7 99.2l49.5 35.3a1.5 1.5 0 0 0 2.3-.7l10.5-25.2a1.5 1.5 0 0 0-1.2-2.1l-59.9-10a1.5 1.5 0 0 0-1.2 2.7zm2.6 137.8l59.9-10a1.6 1.6 0 0 0 1.2-2.1l-10.5-25.2a1.6 1.6 0 0 0-2.3-.7L93.9 338a1.5 1.5 0 0 0 1.2 2.7zm99.2 95.7l35.3-49.5a1.6 1.6 0 0 0-.7-2.3l-25.2-10.4a1.5 1.5 0 0 0-2.1 1.1l-10 60a1.5 1.5 0 0 0 2.7 1.1zm137.8-2.5l-10-60a1.5 1.5 0 0 0-2.1-1.1l-25.2 10.4a1.5 1.5 0 0 0-.7 2.3l35.3 49.5a1.5 1.5 0 0 0 2.7-1.1zm95.7-99.3l-49.5-35.2a1.5 1.5 0 0 0-2.3.6l-10.4 25.2a1.5 1.5 0 0 0 1.1 2.1l60 10.1a1.6 1.6 0 0 0 1.1-2.8zm-2.5-137.8l-60 10.1a1.5 1.5 0 0 0-1.1 2.1l10.4 25.2a1.5 1.5 0 0 0 2.3.6l49.5-35.2a1.5 1.5 0 0 0-1.1-2.8z"/></symbol><symbol id="three-sun" viewBox="0 0 1441.3 594"><circle cx="264.5" cy="261" r="106.7" fill="#4d4f5c"/><path fill="#4d4f5c" d="M260.2 59.7l-18.6 80.8a2 2 0 0 0 2 2.5h37.3a2 2 0 0 0 2-2.5l-18.6-80.8a2.1 2.1 0 0 0-4.1 0zm-141 62l43.9 70.3a2.1 2.1 0 0 0 3.3.3l26.3-26.3a2.1 2.1 0 0 0-.4-3.2l-70.3-44a2.1 2.1 0 0 0-2.8 2.9zm-56 143.6l80.8 18.6a2.1 2.1 0 0 0 2.6-2.1v-37.2a2.1 2.1 0 0 0-2.6-2l-80.8 18.6a2.1 2.1 0 0 0 0 4.1zm62 141l70.3-43.9a2.1 2.1 0 0 0 .3-3.3l-26.3-26.3a2.1 2.1 0 0 0-3.2.4l-44 70.3a2.1 2.1 0 0 0 2.9 2.8zm143.6 56l18.6-80.8a2.1 2.1 0 0 0-2-2.6h-37.3a2.1 2.1 0 0 0-2 2.6l18.6 80.8a2.1 2.1 0 0 0 4.1 0zm141-62L365.9 330a2.2 2.2 0 0 0-3.3-.4l-26.3 26.3a2.2 2.2 0 0 0 .4 3.3l70.3 43.9a2 2 0 0 0 2.8-2.8zm56-143.6L385 238.1a2.1 2.1 0 0 0-2.6 2v37.2a2.1 2.1 0 0 0 2.6 2.1l80.8-18.6a2.1 2.1 0 0 0 0-4.1zm-62-141.1l-70.3 44a2 2 0 0 0-.3 3.2l26.3 26.3a2 2 0 0 0 3.2-.3l44-70.3a2.1 2.1 0 0 0-2.9-2.9zm-73.4-22.2l-35.3 49.5a1.5 1.5 0 0 0 .6 2.3l25.3 10.4a1.4 1.4 0 0 0 2-1.2l10.1-59.9a1.5 1.5 0 0 0-2.7-1.1zm-137.9 2.5l10.1 59.9a1.5 1.5 0 0 0 2.1 1.2l25.2-10.5a1.5 1.5 0 0 0 .7-2.2l-35.3-49.6a1.6 1.6 0 0 0-2.8 1.2zm-95.6 99.2l49.5 35.3a1.5 1.5 0 0 0 2.3-.7l10.4-25.2a1.5 1.5 0 0 0-1.1-2.1l-60-10a1.5 1.5 0 0 0-1.1 2.7zm2.5 137.8l59.9-10a1.5 1.5 0 0 0 1.2-2.1l-10.4-25.2a1.6 1.6 0 0 0-2.3-.7l-49.5 35.3a1.5 1.5 0 0 0 1.1 2.7zm99.2 95.7l35.3-49.5a1.5 1.5 0 0 0-.6-2.3L208 366.4a1.4 1.4 0 0 0-2 1.1l-10.1 60a1.5 1.5 0 0 0 2.7 1.1zm137.9-2.5l-10.1-60a1.5 1.5 0 0 0-2.1-1.1l-25.2 10.4a1.6 1.6 0 0 0-.7 2.3l35.3 49.5a1.5 1.5 0 0 0 2.8-1.1zm95.6-99.3l-49.5-35.2a1.5 1.5 0 0 0-2.3.6l-10.4 25.2a1.5 1.5 0 0 0 1.1 2.1l60 10.1a1.5 1.5 0 0 0 1.1-2.8zM429.6 189l-59.9 10.1a1.5 1.5 0 0 0-1.2 2.1l10.4 25.2a1.5 1.5 0 0 0 2.3.6l49.5-35.2a1.5 1.5 0 0 0-1.1-2.8z"/><circle cx="710.8" cy="261" r="106.7" fill="#4d4f5c"/><path fill="#4d4f5c" d="M706.5 59.7l-18.6 80.8a2.1 2.1 0 0 0 2.1 2.5h37.2a2 2 0 0 0 2-2.5l-18.6-80.8a2.1 2.1 0 0 0-4.1 0zm-141 62l43.9 70.3a2.1 2.1 0 0 0 3.3.3L639 166a2.1 2.1 0 0 0-.4-3.2l-70.3-44a2.1 2.1 0 0 0-2.8 2.9zm-56 143.6l80.8 18.6a2.1 2.1 0 0 0 2.6-2.1v-37.2a2.1 2.1 0 0 0-2.6-2l-80.8 18.6a2.1 2.1 0 0 0 0 4.1zm62 141l70.3-43.9a2.2 2.2 0 0 0 .4-3.3l-26.4-26.3a2.1 2.1 0 0 0-3.2.4l-44 70.3a2.1 2.1 0 0 0 2.9 2.8zm143.6 56l18.6-80.8a2.1 2.1 0 0 0-2-2.6h-37.2a2.1 2.1 0 0 0-2.1 2.6l18.6 80.8a2.1 2.1 0 0 0 4.1 0zm141.1-62l-44-70.3a2.1 2.1 0 0 0-3.2-.4l-26.4 26.3a2.2 2.2 0 0 0 .4 3.3l70.3 43.9a2.1 2.1 0 0 0 2.9-2.8zm55.9-143.6l-80.8-18.6a2 2 0 0 0-2.5 2v37.2a2.1 2.1 0 0 0 2.5 2.1l80.8-18.6a2.1 2.1 0 0 0 0-4.1zm-62-141.1l-70.3 44a2 2 0 0 0-.3 3.2l26.3 26.3a2 2 0 0 0 3.2-.3l44-70.3a2.1 2.1 0 0 0-2.9-2.9zm-73.4-22.2l-35.3 49.5a1.5 1.5 0 0 0 .7 2.3l25.2 10.4a1.4 1.4 0 0 0 2-1.2l10.1-59.9a1.5 1.5 0 0 0-2.7-1.1zm-137.9 2.5l10.1 59.9a1.5 1.5 0 0 0 2.1 1.2l25.2-10.5a1.5 1.5 0 0 0 .7-2.2l-35.3-49.6a1.6 1.6 0 0 0-2.8 1.2zm-95.6 99.2l49.5 35.3a1.5 1.5 0 0 0 2.3-.7l10.4-25.2a1.5 1.5 0 0 0-1.1-2.1l-60-10a1.5 1.5 0 0 0-1.1 2.7zm2.5 137.8l60-10a1.5 1.5 0 0 0 1.1-2.1l-10.4-25.2a1.6 1.6 0 0 0-2.3-.7l-49.5 35.3a1.5 1.5 0 0 0 1.1 2.7zm99.3 95.7l35.2-49.5a1.5 1.5 0 0 0-.6-2.3l-25.2-10.4a1.5 1.5 0 0 0-2.1 1.1l-10.1 60a1.5 1.5 0 0 0 2.8 1.1zm137.8-2.5l-10.1-60a1.5 1.5 0 0 0-2.1-1.1l-25.2 10.4a1.5 1.5 0 0 0-.6 2.3l35.2 49.5a1.5 1.5 0 0 0 2.8-1.1zm95.6-99.3l-49.5-35.2a1.5 1.5 0 0 0-2.3.6l-10.4 25.2a1.5 1.5 0 0 0 1.2 2.1l59.9 10.1a1.5 1.5 0 0 0 1.1-2.8zM875.9 189L816 199.1a1.5 1.5 0 0 0-1.2 2.1l10.4 25.2a1.5 1.5 0 0 0 2.3.6l49.5-35.2a1.5 1.5 0 0 0-1.1-2.8z"/><circle cx="1157.1" cy="261" r="106.7" fill="#4d4f5c"/><path fill="#4d4f5c" d="M1152.8 59.7l-18.6 80.8a2.1 2.1 0 0 0 2.1 2.5h37.2a2 2 0 0 0 2-2.5l-18.6-80.8a2.1 2.1 0 0 0-4.1 0zm-141 62l43.9 70.3a2.1 2.1 0 0 0 3.3.3l26.3-26.3a2 2 0 0 0-.4-3.2l-70.3-44a2.1 2.1 0 0 0-2.8 2.9zm-56 143.6l80.8 18.6a2.1 2.1 0 0 0 2.6-2.1v-37.2a2.1 2.1 0 0 0-2.6-2l-80.8 18.6a2.1 2.1 0 0 0 0 4.1zm62 141l70.3-43.9a2.2 2.2 0 0 0 .4-3.3l-26.3-26.3a2.2 2.2 0 0 0-3.3.4l-43.9 70.3a2 2 0 0 0 2.8 2.8zm143.6 56l18.6-80.8a2.1 2.1 0 0 0-2-2.6h-37.2a2.1 2.1 0 0 0-2.1 2.6l18.6 80.8a2.1 2.1 0 0 0 4.1 0zm141.1-62l-44-70.3a2.1 2.1 0 0 0-3.2-.4l-26.3 26.3a2.1 2.1 0 0 0 .3 3.3l70.3 43.9a2.1 2.1 0 0 0 2.9-2.8zm55.9-143.6l-80.8-18.6a2 2 0 0 0-2.5 2v37.2a2.1 2.1 0 0 0 2.5 2.1l80.8-18.6a2.1 2.1 0 0 0 0-4.1zm-62-141.1l-70.3 44a2 2 0 0 0-.3 3.2l26.3 26.3a2 2 0 0 0 3.2-.3l44-70.3a2.1 2.1 0 0 0-2.9-2.9zM1223 93.4l-35.3 49.5a1.5 1.5 0 0 0 .7 2.3l25.2 10.4a1.5 1.5 0 0 0 2.1-1.2l10-59.9a1.5 1.5 0 0 0-2.7-1.1zm-137.8 2.5l10 59.9a1.5 1.5 0 0 0 2.1 1.2l25.2-10.5a1.5 1.5 0 0 0 .7-2.2l-35.3-49.6a1.5 1.5 0 0 0-2.7 1.2zm-95.7 99.2l49.5 35.3a1.5 1.5 0 0 0 2.3-.7l10.4-25.2a1.5 1.5 0 0 0-1.1-2.1l-60-10a1.5 1.5 0 0 0-1.1 2.7zm2.5 137.8l60-10a1.5 1.5 0 0 0 1.1-2.1l-10.4-25.2a1.6 1.6 0 0 0-2.3-.7l-49.5 35.3a1.5 1.5 0 0 0 1.1 2.7zm99.3 95.7l35.2-49.5a1.5 1.5 0 0 0-.6-2.3l-25.2-10.4a1.5 1.5 0 0 0-2.1 1.1l-10.1 60a1.5 1.5 0 0 0 2.8 1.1zm137.8-2.5l-10.1-60a1.5 1.5 0 0 0-2.1-1.1l-25.2 10.4a1.5 1.5 0 0 0-.6 2.3l35.2 49.5a1.5 1.5 0 0 0 2.8-1.1zm95.6-99.3l-49.5-35.2a1.5 1.5 0 0 0-2.3.6l-10.4 25.2a1.5 1.5 0 0 0 1.2 2.1l59.9 10.1a1.5 1.5 0 0 0 1.1-2.8zm-2.5-137.8l-59.9 10.1a1.5 1.5 0 0 0-1.2 2.1l10.5 25.2a1.4 1.4 0 0 0 2.2.6l49.6-35.2a1.6 1.6 0 0 0-1.2-2.8z"/></symbol><symbol id="two-drop" viewBox="0 0 1014.2 929.4"><path fill="#4d4f5c" d="M414 602.2c0 104.1-84.3 188.5-188.4 188.5S37.1 706.3 37.1 602.2s188.5-463.5 188.5-463.5S414 498.1 414 602.2zm508.8 0c0 104.1-84.4 188.5-188.5 188.5s-188.5-84.4-188.5-188.5 188.5-463.5 188.5-463.5 188.5 359.4 188.5 463.5z"/></symbol><symbol id="two-sun" viewBox="0 0 922.2 544.7"><circle cx="234.5" cy="249.8" r="106.7" fill="#4d4f5c"/><path fill="#4d4f5c" d="M230.2 48.5l-18.6 80.8a2.1 2.1 0 0 0 2 2.6h37.2a2.1 2.1 0 0 0 2-2.6l-18.6-80.8a2.1 2.1 0 0 0-4 0zm-141.1 62l44 70.3a2.1 2.1 0 0 0 3.2.4l26.3-26.4a2 2 0 0 0-.3-3.2L92 107.7a2.1 2.1 0 0 0-2.9 2.8zM33.2 254.1l80.8 18.6a2 2 0 0 0 2.5-2v-37.2a2.1 2.1 0 0 0-2.5-2.1L33.2 250a2.1 2.1 0 0 0 0 4.1zm62 141.1l70.2-44a2 2 0 0 0 .4-3.2l-26.3-26.4a2.1 2.1 0 0 0-3.2.4l-44 70.3a2.1 2.1 0 0 0 2.9 2.9zm143.5 55.9l18.6-80.8a2 2 0 0 0-2-2.5h-37.2a2 2 0 0 0-2 2.5l18.6 80.8a2.1 2.1 0 0 0 4 0zm141.1-62l-44-70.3a2 2 0 0 0-3.2-.3l-26.3 26.3a2 2 0 0 0 .4 3.2l70.2 44a2.1 2.1 0 0 0 2.9-2.9zm55.9-143.6L355 226.9a2.1 2.1 0 0 0-2.6 2.1v37.2a2.1 2.1 0 0 0 2.6 2l80.7-18.6a2.1 2.1 0 0 0 0-4.1zm-61.9-141l-70.3 43.9a2.2 2.2 0 0 0-.4 3.3l26.3 26.3a2.2 2.2 0 0 0 3.3-.4l43.9-70.3a2 2 0 0 0-2.8-2.8zm-73.5-22.3L265 131.7a1.6 1.6 0 0 0 .7 2.3l25.2 10.4a1.5 1.5 0 0 0 2.1-1.1l10.1-60a1.5 1.5 0 0 0-2.8-1.1zm-137.8 2.5l10.1 60a1.5 1.5 0 0 0 2.1 1.1l25.2-10.4a1.5 1.5 0 0 0 .6-2.3l-35.3-49.5a1.5 1.5 0 0 0-2.7 1.1zM66.8 184l49.5 35.2a1.5 1.5 0 0 0 2.3-.6l10.5-25.2a1.5 1.5 0 0 0-1.2-2.1L68 181.2a1.6 1.6 0 0 0-1.2 2.8zm2.6 137.8l59.9-10.1a1.6 1.6 0 0 0 1.2-2.1L120 284.4a1.5 1.5 0 0 0-2.3-.6L68.2 319a1.6 1.6 0 0 0 1.2 2.8zm99.2 95.6l35.3-49.5a1.6 1.6 0 0 0-.7-2.3L178 355.2a1.5 1.5 0 0 0-2.1 1.2l-10 59.9a1.5 1.5 0 0 0 2.7 1.1zm137.8-2.5l-10-59.9a1.5 1.5 0 0 0-2.1-1.2l-25.2 10.5a1.4 1.4 0 0 0-.7 2.2l35.3 49.5a1.5 1.5 0 0 0 2.7-1.1zm95.7-99.2l-49.5-35.3a1.5 1.5 0 0 0-2.3.7l-10.5 25.2a1.6 1.6 0 0 0 1.2 2.1l60 10a1.5 1.5 0 0 0 1.1-2.7zm-2.5-137.8l-60 10a1.5 1.5 0 0 0-1.1 2.1l10.4 25.2a1.6 1.6 0 0 0 2.3.7l49.5-35.3a1.5 1.5 0 0 0-1.1-2.7z"/><circle cx="680.8" cy="249.8" r="106.7" fill="#4d4f5c"/><path fill="#4d4f5c" d="M676.5 48.5l-18.6 80.8a2.1 2.1 0 0 0 2 2.6h37.2a2.1 2.1 0 0 0 2.1-2.6l-18.7-80.8a2.1 2.1 0 0 0-4 0zm-141.1 62l44 70.3a2.1 2.1 0 0 0 3.2.4l26.3-26.4a2 2 0 0 0-.3-3.2l-70.3-43.9a2.1 2.1 0 0 0-2.9 2.8zm-55.9 143.6l80.8 18.6a2 2 0 0 0 2.5-2v-37.2a2.1 2.1 0 0 0-2.5-2.1L479.5 250a2.1 2.1 0 0 0 0 4.1zm62 141.1l70.3-44a2 2 0 0 0 .3-3.2l-26.3-26.4a2.1 2.1 0 0 0-3.2.4l-44 70.3a2.1 2.1 0 0 0 2.9 2.9zM685 451.1l18.7-80.8a2.1 2.1 0 0 0-2.1-2.5h-37.2a2 2 0 0 0-2 2.5l18.6 80.8a2.1 2.1 0 0 0 4 0zm141.1-62l-44-70.3a2 2 0 0 0-3.2-.3l-26.3 26.3a2 2 0 0 0 .4 3.2l70.3 44a2.1 2.1 0 0 0 2.8-2.9zM882 245.5l-80.7-18.6a2.1 2.1 0 0 0-2.6 2.1v37.2a2.1 2.1 0 0 0 2.6 2l80.7-18.6a2.1 2.1 0 0 0 0-4.1zm-61.9-141l-70.3 43.9a2.2 2.2 0 0 0-.4 3.3l26.3 26.3a2.2 2.2 0 0 0 3.3-.4l43.9-70.3a2 2 0 0 0-2.8-2.8zm-73.5-22.3l-35.2 49.5a1.5 1.5 0 0 0 .6 2.3l25.2 10.4a1.5 1.5 0 0 0 2.1-1.1l10.1-60a1.5 1.5 0 0 0-2.8-1.1zm-137.8 2.5l10.1 60a1.5 1.5 0 0 0 2.1 1.1l25.2-10.4a1.5 1.5 0 0 0 .6-2.3l-35.2-49.5a1.5 1.5 0 0 0-2.8 1.1zM513.1 184l49.6 35.2a1.4 1.4 0 0 0 2.2-.6l10.5-25.2a1.5 1.5 0 0 0-1.2-2.1l-59.9-10.1a1.6 1.6 0 0 0-1.2 2.8zm2.6 137.8l59.9-10.1a1.5 1.5 0 0 0 1.2-2.1l-10.5-25.2a1.5 1.5 0 0 0-2.3-.6L514.5 319a1.6 1.6 0 0 0 1.2 2.8zm99.2 95.6l35.3-49.5a1.5 1.5 0 0 0-.7-2.3l-25.2-10.4a1.5 1.5 0 0 0-2.1 1.2l-10 59.9a1.5 1.5 0 0 0 2.7 1.1zm137.8-2.5l-10-59.9a1.5 1.5 0 0 0-2.1-1.2l-25.2 10.5a1.4 1.4 0 0 0-.7 2.2L750 416a1.5 1.5 0 0 0 2.7-1.1zm95.7-99.2l-49.5-35.3a1.5 1.5 0 0 0-2.3.7l-10.4 25.2a1.5 1.5 0 0 0 1.1 2.1l60 10a1.5 1.5 0 0 0 1.1-2.7zm-2.5-137.8l-60 10a1.5 1.5 0 0 0-1.1 2.1l10.4 25.2a1.6 1.6 0 0 0 2.3.7l49.5-35.3a1.5 1.5 0 0 0-1.1-2.7z"/></symbol><symbol id="dollar-icon" viewBox="0 0 792 1224"><path fill="#4d4f5c" d="M417.9 558.1V420c19.2 8 31.2 19.3 39 31.4a65.2 65.2 0 0 0 26 22.7 79.6 79.6 0 0 0 35.8 8.3c54.4 0 88-50.8 60.4-91.1s-77.7-77.8-161.2-90.6v-84.6a53.3 53.3 0 0 0-53-53 53.1 53.1 0 0 0-53 53v81.5c-120 11-211.6 74.7-211.6 190.2 0 81.9 33.1 150.8 211.6 190v162.7c-39.6-9-64.1-27.9-79.4-53.6-11.5-19.2-33.8-31.9-58.9-31.9h-12.1c-47.1 0-79.3 41.6-60 78.5 34.3 65.6 100.8 112.8 210.4 123.1v81.9a53 53 0 0 0 106 0v-82.7C570.6 939.3 634 857.2 634 758.6c0-86.5-30.6-156.3-216.1-200.5zm-173.4-84.8c0-34 22.6-55.9 67.4-62.8v123.6c-53.7-15.9-67.4-33.4-67.4-60.8zm173.4 369.9V702c56.6 18.3 71 40.3 71 72.9s-16.7 59.3-71 68.3z"/></symbol><symbol id="heart-icon" viewBox="0 0 792 1224"><path fill="#4d4f5c" d="M771.6 625.5c-66.3 195.7-374.1 374.2-374.1 374.2S95.8 819.1 23.4 625.5C-54 418.9 236.7 242.6 396.8 535.3c123.9-299.9 444.8-116.4 374.8 90.2z"/></symbol><symbol id="one-drop" viewBox="0 0 486.3 929.4"><path fill="#4d4f5c" d="M442 549.5C442 653.6 357.6 738 253.5 738S65.1 653.6 65.1 549.5 253.5 86 253.5 86 442 445.4 442 549.5z"/></symbol><symbol id="one-sun" viewBox="0 0 517.9 524.4"><circle cx="260.2" cy="268.8" r="106.7" fill="#4d4f5c"/><path fill="#4d4f5c" d="M255.9 67.5l-18.6 80.8a2 2 0 0 0 2 2.5h37.2a2 2 0 0 0 2-2.5l-18.6-80.8a2.1 2.1 0 0 0-4 0zm-141.1 62l44 70.3a2 2 0 0 0 3.2.3l26.3-26.3a2 2 0 0 0-.3-3.2l-70.3-44a2.1 2.1 0 0 0-2.9 2.9zM58.9 273.1l80.8 18.6a2.1 2.1 0 0 0 2.5-2.1v-37.2a2 2 0 0 0-2.5-2L58.9 269a2.1 2.1 0 0 0 0 4.1zm62 141l70.2-43.9a2.1 2.1 0 0 0 .4-3.3l-26.3-26.3a2 2 0 0 0-3.2.4l-44 70.3a2.1 2.1 0 0 0 2.9 2.8zm143.5 56l18.6-80.8a2.1 2.1 0 0 0-2-2.6h-37.2a2.1 2.1 0 0 0-2 2.6l18.6 80.8a2.1 2.1 0 0 0 4 0zm141.1-62l-44-70.3a2.1 2.1 0 0 0-3.2-.4L332 363.7a2.1 2.1 0 0 0 .4 3.3l70.2 43.9a2.1 2.1 0 0 0 2.9-2.8zm55.9-143.6l-80.7-18.6a2.1 2.1 0 0 0-2.6 2v37.2a2.1 2.1 0 0 0 2.6 2.1l80.7-18.6a2.1 2.1 0 0 0 0-4.1zm-61.9-141.1l-70.3 44a2.1 2.1 0 0 0-.4 3.2l26.3 26.3a2.1 2.1 0 0 0 3.3-.3l43.9-70.3a2.1 2.1 0 0 0-2.8-2.9zM326 101.2l-35.2 49.5a1.5 1.5 0 0 0 .6 2.3l25.2 10.4a1.5 1.5 0 0 0 2.1-1.2l10.1-59.9a1.5 1.5 0 0 0-2.8-1.1zm-137.8 2.5l10.1 59.9a1.5 1.5 0 0 0 2.1 1.2l25.2-10.5a1.5 1.5 0 0 0 .6-2.3l-35.3-49.5a1.5 1.5 0 0 0-2.7 1.2zm-95.7 99.2l49.5 35.3a1.5 1.5 0 0 0 2.3-.7l10.5-25.2a1.5 1.5 0 0 0-1.2-2.1l-59.9-10a1.5 1.5 0 0 0-1.2 2.7zm2.6 137.8l59.9-10a1.6 1.6 0 0 0 1.2-2.1l-10.5-25.2a1.6 1.6 0 0 0-2.3-.7L93.9 338a1.5 1.5 0 0 0 1.2 2.7zm99.2 95.7l35.3-49.5a1.6 1.6 0 0 0-.7-2.3l-25.2-10.4a1.5 1.5 0 0 0-2.1 1.1l-10 60a1.5 1.5 0 0 0 2.7 1.1zm137.8-2.5l-10-60a1.5 1.5 0 0 0-2.1-1.1l-25.2 10.4a1.5 1.5 0 0 0-.7 2.3l35.3 49.5a1.5 1.5 0 0 0 2.7-1.1zm95.7-99.3l-49.5-35.2a1.5 1.5 0 0 0-2.3.6l-10.4 25.2a1.5 1.5 0 0 0 1.1 2.1l60 10.1a1.6 1.6 0 0 0 1.1-2.8zm-2.5-137.8l-60 10.1a1.5 1.5 0 0 0-1.1 2.1l10.4 25.2a1.5 1.5 0 0 0 2.3.6l49.5-35.2a1.5 1.5 0 0 0-1.1-2.8z"/></symbol><symbol id="three-sun" viewBox="0 0 1441.3 594"><circle cx="264.5" cy="261" r="106.7" fill="#4d4f5c"/><path fill="#4d4f5c" d="M260.2 59.7l-18.6 80.8a2 2 0 0 0 2 2.5h37.3a2 2 0 0 0 2-2.5l-18.6-80.8a2.1 2.1 0 0 0-4.1 0zm-141 62l43.9 70.3a2.1 2.1 0 0 0 3.3.3l26.3-26.3a2.1 2.1 0 0 0-.4-3.2l-70.3-44a2.1 2.1 0 0 0-2.8 2.9zm-56 143.6l80.8 18.6a2.1 2.1 0 0 0 2.6-2.1v-37.2a2.1 2.1 0 0 0-2.6-2l-80.8 18.6a2.1 2.1 0 0 0 0 4.1zm62 141l70.3-43.9a2.1 2.1 0 0 0 .3-3.3l-26.3-26.3a2.1 2.1 0 0 0-3.2.4l-44 70.3a2.1 2.1 0 0 0 2.9 2.8zm143.6 56l18.6-80.8a2.1 2.1 0 0 0-2-2.6h-37.3a2.1 2.1 0 0 0-2 2.6l18.6 80.8a2.1 2.1 0 0 0 4.1 0zm141-62L365.9 330a2.2 2.2 0 0 0-3.3-.4l-26.3 26.3a2.2 2.2 0 0 0 .4 3.3l70.3 43.9a2 2 0 0 0 2.8-2.8zm56-143.6L385 238.1a2.1 2.1 0 0 0-2.6 2v37.2a2.1 2.1 0 0 0 2.6 2.1l80.8-18.6a2.1 2.1 0 0 0 0-4.1zm-62-141.1l-70.3 44a2 2 0 0 0-.3 3.2l26.3 26.3a2 2 0 0 0 3.2-.3l44-70.3a2.1 2.1 0 0 0-2.9-2.9zm-73.4-22.2l-35.3 49.5a1.5 1.5 0 0 0 .6 2.3l25.3 10.4a1.4 1.4 0 0 0 2-1.2l10.1-59.9a1.5 1.5 0 0 0-2.7-1.1zm-137.9 2.5l10.1 59.9a1.5 1.5 0 0 0 2.1 1.2l25.2-10.5a1.5 1.5 0 0 0 .7-2.2l-35.3-49.6a1.6 1.6 0 0 0-2.8 1.2zm-95.6 99.2l49.5 35.3a1.5 1.5 0 0 0 2.3-.7l10.4-25.2a1.5 1.5 0 0 0-1.1-2.1l-60-10a1.5 1.5 0 0 0-1.1 2.7zm2.5 137.8l59.9-10a1.5 1.5 0 0 0 1.2-2.1l-10.4-25.2a1.6 1.6 0 0 0-2.3-.7l-49.5 35.3a1.5 1.5 0 0 0 1.1 2.7zm99.2 95.7l35.3-49.5a1.5 1.5 0 0 0-.6-2.3L208 366.4a1.4 1.4 0 0 0-2 1.1l-10.1 60a1.5 1.5 0 0 0 2.7 1.1zm137.9-2.5l-10.1-60a1.5 1.5 0 0 0-2.1-1.1l-25.2 10.4a1.6 1.6 0 0 0-.7 2.3l35.3 49.5a1.5 1.5 0 0 0 2.8-1.1zm95.6-99.3l-49.5-35.2a1.5 1.5 0 0 0-2.3.6l-10.4 25.2a1.5 1.5 0 0 0 1.1 2.1l60 10.1a1.5 1.5 0 0 0 1.1-2.8zM429.6 189l-59.9 10.1a1.5 1.5 0 0 0-1.2 2.1l10.4 25.2a1.5 1.5 0 0 0 2.3.6l49.5-35.2a1.5 1.5 0 0 0-1.1-2.8z"/><circle cx="710.8" cy="261" r="106.7" fill="#4d4f5c"/><path fill="#4d4f5c" d="M706.5 59.7l-18.6 80.8a2.1 2.1 0 0 0 2.1 2.5h37.2a2 2 0 0 0 2-2.5l-18.6-80.8a2.1 2.1 0 0 0-4.1 0zm-141 62l43.9 70.3a2.1 2.1 0 0 0 3.3.3L639 166a2.1 2.1 0 0 0-.4-3.2l-70.3-44a2.1 2.1 0 0 0-2.8 2.9zm-56 143.6l80.8 18.6a2.1 2.1 0 0 0 2.6-2.1v-37.2a2.1 2.1 0 0 0-2.6-2l-80.8 18.6a2.1 2.1 0 0 0 0 4.1zm62 141l70.3-43.9a2.2 2.2 0 0 0 .4-3.3l-26.4-26.3a2.1 2.1 0 0 0-3.2.4l-44 70.3a2.1 2.1 0 0 0 2.9 2.8zm143.6 56l18.6-80.8a2.1 2.1 0 0 0-2-2.6h-37.2a2.1 2.1 0 0 0-2.1 2.6l18.6 80.8a2.1 2.1 0 0 0 4.1 0zm141.1-62l-44-70.3a2.1 2.1 0 0 0-3.2-.4l-26.4 26.3a2.2 2.2 0 0 0 .4 3.3l70.3 43.9a2.1 2.1 0 0 0 2.9-2.8zm55.9-143.6l-80.8-18.6a2 2 0 0 0-2.5 2v37.2a2.1 2.1 0 0 0 2.5 2.1l80.8-18.6a2.1 2.1 0 0 0 0-4.1zm-62-141.1l-70.3 44a2 2 0 0 0-.3 3.2l26.3 26.3a2 2 0 0 0 3.2-.3l44-70.3a2.1 2.1 0 0 0-2.9-2.9zm-73.4-22.2l-35.3 49.5a1.5 1.5 0 0 0 .7 2.3l25.2 10.4a1.4 1.4 0 0 0 2-1.2l10.1-59.9a1.5 1.5 0 0 0-2.7-1.1zm-137.9 2.5l10.1 59.9a1.5 1.5 0 0 0 2.1 1.2l25.2-10.5a1.5 1.5 0 0 0 .7-2.2l-35.3-49.6a1.6 1.6 0 0 0-2.8 1.2zm-95.6 99.2l49.5 35.3a1.5 1.5 0 0 0 2.3-.7l10.4-25.2a1.5 1.5 0 0 0-1.1-2.1l-60-10a1.5 1.5 0 0 0-1.1 2.7zm2.5 137.8l60-10a1.5 1.5 0 0 0 1.1-2.1l-10.4-25.2a1.6 1.6 0 0 0-2.3-.7l-49.5 35.3a1.5 1.5 0 0 0 1.1 2.7zm99.3 95.7l35.2-49.5a1.5 1.5 0 0 0-.6-2.3l-25.2-10.4a1.5 1.5 0 0 0-2.1 1.1l-10.1 60a1.5 1.5 0 0 0 2.8 1.1zm137.8-2.5l-10.1-60a1.5 1.5 0 0 0-2.1-1.1l-25.2 10.4a1.5 1.5 0 0 0-.6 2.3l35.2 49.5a1.5 1.5 0 0 0 2.8-1.1zm95.6-99.3l-49.5-35.2a1.5 1.5 0 0 0-2.3.6l-10.4 25.2a1.5 1.5 0 0 0 1.2 2.1l59.9 10.1a1.5 1.5 0 0 0 1.1-2.8zM875.9 189L816 199.1a1.5 1.5 0 0 0-1.2 2.1l10.4 25.2a1.5 1.5 0 0 0 2.3.6l49.5-35.2a1.5 1.5 0 0 0-1.1-2.8z"/><circle cx="1157.1" cy="261" r="106.7" fill="#4d4f5c"/><path fill="#4d4f5c" d="M1152.8 59.7l-18.6 80.8a2.1 2.1 0 0 0 2.1 2.5h37.2a2 2 0 0 0 2-2.5l-18.6-80.8a2.1 2.1 0 0 0-4.1 0zm-141 62l43.9 70.3a2.1 2.1 0 0 0 3.3.3l26.3-26.3a2 2 0 0 0-.4-3.2l-70.3-44a2.1 2.1 0 0 0-2.8 2.9zm-56 143.6l80.8 18.6a2.1 2.1 0 0 0 2.6-2.1v-37.2a2.1 2.1 0 0 0-2.6-2l-80.8 18.6a2.1 2.1 0 0 0 0 4.1zm62 141l70.3-43.9a2.2 2.2 0 0 0 .4-3.3l-26.3-26.3a2.2 2.2 0 0 0-3.3.4l-43.9 70.3a2 2 0 0 0 2.8 2.8zm143.6 56l18.6-80.8a2.1 2.1 0 0 0-2-2.6h-37.2a2.1 2.1 0 0 0-2.1 2.6l18.6 80.8a2.1 2.1 0 0 0 4.1 0zm141.1-62l-44-70.3a2.1 2.1 0 0 0-3.2-.4l-26.3 26.3a2.1 2.1 0 0 0 .3 3.3l70.3 43.9a2.1 2.1 0 0 0 2.9-2.8zm55.9-143.6l-80.8-18.6a2 2 0 0 0-2.5 2v37.2a2.1 2.1 0 0 0 2.5 2.1l80.8-18.6a2.1 2.1 0 0 0 0-4.1zm-62-141.1l-70.3 44a2 2 0 0 0-.3 3.2l26.3 26.3a2 2 0 0 0 3.2-.3l44-70.3a2.1 2.1 0 0 0-2.9-2.9zM1223 93.4l-35.3 49.5a1.5 1.5 0 0 0 .7 2.3l25.2 10.4a1.5 1.5 0 0 0 2.1-1.2l10-59.9a1.5 1.5 0 0 0-2.7-1.1zm-137.8 2.5l10 59.9a1.5 1.5 0 0 0 2.1 1.2l25.2-10.5a1.5 1.5 0 0 0 .7-2.2l-35.3-49.6a1.5 1.5 0 0 0-2.7 1.2zm-95.7 99.2l49.5 35.3a1.5 1.5 0 0 0 2.3-.7l10.4-25.2a1.5 1.5 0 0 0-1.1-2.1l-60-10a1.5 1.5 0 0 0-1.1 2.7zm2.5 137.8l60-10a1.5 1.5 0 0 0 1.1-2.1l-10.4-25.2a1.6 1.6 0 0 0-2.3-.7l-49.5 35.3a1.5 1.5 0 0 0 1.1 2.7zm99.3 95.7l35.2-49.5a1.5 1.5 0 0 0-.6-2.3l-25.2-10.4a1.5 1.5 0 0 0-2.1 1.1l-10.1 60a1.5 1.5 0 0 0 2.8 1.1zm137.8-2.5l-10.1-60a1.5 1.5 0 0 0-2.1-1.1l-25.2 10.4a1.5 1.5 0 0 0-.6 2.3l35.2 49.5a1.5 1.5 0 0 0 2.8-1.1zm95.6-99.3l-49.5-35.2a1.5 1.5 0 0 0-2.3.6l-10.4 25.2a1.5 1.5 0 0 0 1.2 2.1l59.9 10.1a1.5 1.5 0 0 0 1.1-2.8zm-2.5-137.8l-59.9 10.1a1.5 1.5 0 0 0-1.2 2.1l10.5 25.2a1.4 1.4 0 0 0 2.2.6l49.6-35.2a1.6 1.6 0 0 0-1.2-2.8z"/></symbol><symbol id="two-drop" viewBox="0 0 1014.2 929.4"><path fill="#4d4f5c" d="M414 602.2c0 104.1-84.3 188.5-188.4 188.5S37.1 706.3 37.1 602.2s188.5-463.5 188.5-463.5S414 498.1 414 602.2zm508.8 0c0 104.1-84.4 188.5-188.5 188.5s-188.5-84.4-188.5-188.5 188.5-463.5 188.5-463.5 188.5 359.4 188.5 463.5z"/></symbol><symbol id="two-sun" viewBox="0 0 922.2 544.7"><circle cx="234.5" cy="249.8" r="106.7" fill="#4d4f5c"/><path fill="#4d4f5c" d="M230.2 48.5l-18.6 80.8a2.1 2.1 0 0 0 2 2.6h37.2a2.1 2.1 0 0 0 2-2.6l-18.6-80.8a2.1 2.1 0 0 0-4 0zm-141.1 62l44 70.3a2.1 2.1 0 0 0 3.2.4l26.3-26.4a2 2 0 0 0-.3-3.2L92 107.7a2.1 2.1 0 0 0-2.9 2.8zM33.2 254.1l80.8 18.6a2 2 0 0 0 2.5-2v-37.2a2.1 2.1 0 0 0-2.5-2.1L33.2 250a2.1 2.1 0 0 0 0 4.1zm62 141.1l70.2-44a2 2 0 0 0 .4-3.2l-26.3-26.4a2.1 2.1 0 0 0-3.2.4l-44 70.3a2.1 2.1 0 0 0 2.9 2.9zm143.5 55.9l18.6-80.8a2 2 0 0 0-2-2.5h-37.2a2 2 0 0 0-2 2.5l18.6 80.8a2.1 2.1 0 0 0 4 0zm141.1-62l-44-70.3a2 2 0 0 0-3.2-.3l-26.3 26.3a2 2 0 0 0 .4 3.2l70.2 44a2.1 2.1 0 0 0 2.9-2.9zm55.9-143.6L355 226.9a2.1 2.1 0 0 0-2.6 2.1v37.2a2.1 2.1 0 0 0 2.6 2l80.7-18.6a2.1 2.1 0 0 0 0-4.1zm-61.9-141l-70.3 43.9a2.2 2.2 0 0 0-.4 3.3l26.3 26.3a2.2 2.2 0 0 0 3.3-.4l43.9-70.3a2 2 0 0 0-2.8-2.8zm-73.5-22.3L265 131.7a1.6 1.6 0 0 0 .7 2.3l25.2 10.4a1.5 1.5 0 0 0 2.1-1.1l10.1-60a1.5 1.5 0 0 0-2.8-1.1zm-137.8 2.5l10.1 60a1.5 1.5 0 0 0 2.1 1.1l25.2-10.4a1.5 1.5 0 0 0 .6-2.3l-35.3-49.5a1.5 1.5 0 0 0-2.7 1.1zM66.8 184l49.5 35.2a1.5 1.5 0 0 0 2.3-.6l10.5-25.2a1.5 1.5 0 0 0-1.2-2.1L68 181.2a1.6 1.6 0 0 0-1.2 2.8zm2.6 137.8l59.9-10.1a1.6 1.6 0 0 0 1.2-2.1L120 284.4a1.5 1.5 0 0 0-2.3-.6L68.2 319a1.6 1.6 0 0 0 1.2 2.8zm99.2 95.6l35.3-49.5a1.6 1.6 0 0 0-.7-2.3L178 355.2a1.5 1.5 0 0 0-2.1 1.2l-10 59.9a1.5 1.5 0 0 0 2.7 1.1zm137.8-2.5l-10-59.9a1.5 1.5 0 0 0-2.1-1.2l-25.2 10.5a1.4 1.4 0 0 0-.7 2.2l35.3 49.5a1.5 1.5 0 0 0 2.7-1.1zm95.7-99.2l-49.5-35.3a1.5 1.5 0 0 0-2.3.7l-10.5 25.2a1.6 1.6 0 0 0 1.2 2.1l60 10a1.5 1.5 0 0 0 1.1-2.7zm-2.5-137.8l-60 10a1.5 1.5 0 0 0-1.1 2.1l10.4 25.2a1.6 1.6 0 0 0 2.3.7l49.5-35.3a1.5 1.5 0 0 0-1.1-2.7z"/><circle cx="680.8" cy="249.8" r="106.7" fill="#4d4f5c"/><path fill="#4d4f5c" d="M676.5 48.5l-18.6 80.8a2.1 2.1 0 0 0 2 2.6h37.2a2.1 2.1 0 0 0 2.1-2.6l-18.7-80.8a2.1 2.1 0 0 0-4 0zm-141.1 62l44 70.3a2.1 2.1 0 0 0 3.2.4l26.3-26.4a2 2 0 0 0-.3-3.2l-70.3-43.9a2.1 2.1 0 0 0-2.9 2.8zm-55.9 143.6l80.8 18.6a2 2 0 0 0 2.5-2v-37.2a2.1 2.1 0 0 0-2.5-2.1L479.5 250a2.1 2.1 0 0 0 0 4.1zm62 141.1l70.3-44a2 2 0 0 0 .3-3.2l-26.3-26.4a2.1 2.1 0 0 0-3.2.4l-44 70.3a2.1 2.1 0 0 0 2.9 2.9zM685 451.1l18.7-80.8a2.1 2.1 0 0 0-2.1-2.5h-37.2a2 2 0 0 0-2 2.5l18.6 80.8a2.1 2.1 0 0 0 4 0zm141.1-62l-44-70.3a2 2 0 0 0-3.2-.3l-26.3 26.3a2 2 0 0 0 .4 3.2l70.3 44a2.1 2.1 0 0 0 2.8-2.9zM882 245.5l-80.7-18.6a2.1 2.1 0 0 0-2.6 2.1v37.2a2.1 2.1 0 0 0 2.6 2l80.7-18.6a2.1 2.1 0 0 0 0-4.1zm-61.9-141l-70.3 43.9a2.2 2.2 0 0 0-.4 3.3l26.3 26.3a2.2 2.2 0 0 0 3.3-.4l43.9-70.3a2 2 0 0 0-2.8-2.8zm-73.5-22.3l-35.2 49.5a1.5 1.5 0 0 0 .6 2.3l25.2 10.4a1.5 1.5 0 0 0 2.1-1.1l10.1-60a1.5 1.5 0 0 0-2.8-1.1zm-137.8 2.5l10.1 60a1.5 1.5 0 0 0 2.1 1.1l25.2-10.4a1.5 1.5 0 0 0 .6-2.3l-35.2-49.5a1.5 1.5 0 0 0-2.8 1.1zM513.1 184l49.6 35.2a1.4 1.4 0 0 0 2.2-.6l10.5-25.2a1.5 1.5 0 0 0-1.2-2.1l-59.9-10.1a1.6 1.6 0 0 0-1.2 2.8zm2.6 137.8l59.9-10.1a1.5 1.5 0 0 0 1.2-2.1l-10.5-25.2a1.5 1.5 0 0 0-2.3-.6L514.5 319a1.6 1.6 0 0 0 1.2 2.8zm99.2 95.6l35.3-49.5a1.5 1.5 0 0 0-.7-2.3l-25.2-10.4a1.5 1.5 0 0 0-2.1 1.2l-10 59.9a1.5 1.5 0 0 0 2.7 1.1zm137.8-2.5l-10-59.9a1.5 1.5 0 0 0-2.1-1.2l-25.2 10.5a1.4 1.4 0 0 0-.7 2.2L750 416a1.5 1.5 0 0 0 2.7-1.1zm95.7-99.2l-49.5-35.3a1.5 1.5 0 0 0-2.3.7l-10.4 25.2a1.5 1.5 0 0 0 1.1 2.1l60 10a1.5 1.5 0 0 0 1.1-2.7zm-2.5-137.8l-60 10a1.5 1.5 0 0 0-1.1 2.1l10.4 25.2a1.6 1.6 0 0 0 2.3.7l49.5-35.3a1.5 1.5 0 0 0-1.1-2.7z"/></symbol><symbol id="3-drop" viewBox="0 0 1490.5 938.4"><path fill="#4d4f5c" d="M926.6 635.6c0 104.1-84.4 188.5-188.5 188.5s-188.5-84.4-188.5-188.5 188.5-463.5 188.5-463.5 188.5 359.4 188.5 463.5zm508.7 0c0 104.1-84.4 188.5-188.5 188.5s-188.4-84.4-188.4-188.5 188.4-463.5 188.4-463.5 188.5 359.4 188.5 463.5zm-1017.5 0c0 104.1-84.3 188.5-188.4 188.5S40.9 739.7 40.9 635.6s188.5-463.5 188.5-463.5 188.4 359.4 188.4 463.5z"/></symbol></svg>