<svg xmlns="http://www.w3.org/2000/svg"><symbol id="logo-16" viewBox="0 0 16 16"><path fill="#231f20" stroke="#231f20" stroke-miterlimit="10" stroke-width=".24" d="M10 15.6H5.1l-.6-4.3h6.3l-.6 4.3zm1-4.4H4.2v-.9c0-.1 0-.1.1-.1h6.9c.1 0 .1 0 .1.1v.9zM6.1 8.5c-.6.9-3.2 1-3.2 1s-.3-2 .8-2.8 1.2.9 1.2.9 2.1-.7 1.2.9zM3.9 5.4c-1.1-.3-1.8-2.1-1.8-2.1s2.5-.7 3.3 0-.8 1.1-.8 1.1 1.1 1.5-.7 1z"/><path fill="#231f20" stroke="#231f20" stroke-miterlimit="10" stroke-width=".24" d="M9.9 9c.6 1.1-1.3 3.1-1.3 3.1s-2.4-1.5-2.3-2.7 1.8-.2 1.8-.2S9 7 9.9 9zm1.2-2.6c.9.5 1.1 2 1.1 2s-2 .3-2.6-.3.8-.9.8-.9-.7-1.6.7-.8zM6.5 4C6 3.3 7.6 1.2 7.6 1.2s2.3 1.6 1.9 2.6-1.5 0-1.5 0-.8 1.4-1.5.2zm3.7-.3c.8-.6 3.3-.5 3.3-.5s-.4 2.2-1.5 2.6-.9-1-.9-1-2.1-.2-.9-1.1zm-.6 1.6c.7 1-2 2.9-2 2.9s-2.7-1.9-2-2.9 2 .3 2 .3 1.1-1.5 2-.3z"/></symbol><symbol id="logo-64" viewBox="0 0 64 64"><path fill="#231f20" stroke="#231f20" stroke-miterlimit="10" stroke-width="1.03" d="M42.1 62.5H22.6c-.5 0-.9-.2-.9-.5l-2.6-18h26.4L43 62a.9.9 0 0 1-.9.5zM46.3 44h-28c-.3 0-.5-.1-.5-.3l-.5-3.8a.5.5 0 0 1 .5-.4h29a.5.5 0 0 1 .5.4l-.5 3.8c0 .2-.2.3-.5.3zM25.5 32.3c-2.2 4-13.1 4.5-13.1 4.5s-1.3-8.4 3-11.8c6.6-5.2 5.1 3.6 5.1 3.6s8.9-3.1 5 3.7zm-9-12.9c-4.6-1.3-7.7-9.1-7.7-9.1s10.6-2.7 13.9.3c5.6 5.1-3.1 4.4-3.1 4.4s4.7 6.6-3.1 4.4z"/><path fill="#231f20" stroke="#231f20" stroke-miterlimit="10" stroke-width="1.03" d="M41.9 34.4c2.3 4.8-5.6 13.3-5.6 13.3S26 41.3 26.7 36.2c1.2-8.6 7.6-.9 7.6-.9s3.7-9 7.6-.9zm5-10.8c3.7 2.2 4.7 8.5 4.7 8.5s-8.4 1.2-10.9-1.5c-4.2-4.6 3.1-3.5 3.1-3.5s-2.7-7 3.1-3.5zm-19.6-10c-1.9-3.2 4.8-12.1 4.8-12.1s9.7 7 8 10.9-6.4.2-6.4.2-3.3 5.8-6.4 1zm15.6-1.4c3.4-2.6 14-2 14-2s-1.7 9.2-6 11c-7.9 3.4-4-4.5-4-4.5s-8.8-.9-4-4.5zM40.4 19c3.1 4.3-8.2 12-8.2 12s-11.6-7.7-8.4-12 8.2 1.1 8.2 1.1 4.6-6.3 8.4-1.1z"/></symbol><symbol id="logo-32" viewBox="0 0 32 32"><path fill="#231f20" stroke="#231f20" stroke-miterlimit="10" stroke-width=".51" d="M17.8 31.1H8.1c-.2 0-.4-.1-.4-.3l-1.3-8.9h13.1l-1.3 8.9c0 .2-.2.3-.4.3zm2.1-9.2H6l-.3-.2-.2-1.8a.2.2 0 0 1 .2-.2h14.4c.2 0 .3.1.3.2l-.3 1.8a.2.2 0 0 1-.2.2zM9.6 16.1c-1.1 2-6.5 2.3-6.5 2.3s-.6-4.2 1.5-5.9 2.5 1.8 2.5 1.8 4.4-1.6 2.5 1.8zM5.1 9.7c-2.3-.6-3.8-4.5-3.8-4.5s5.2-1.3 6.9.2-1.6 2.1-1.6 2.1S9 10.8 5.1 9.7z"/><path fill="#231f20" stroke="#231f20" stroke-miterlimit="10" stroke-width=".51" d="M17.7 17.2c1.1 2.3-2.8 6.5-2.8 6.5s-5.1-3.1-4.7-5.6c.6-4.3 3.7-.5 3.7-.5s1.8-4.5 3.8-.4zm2.5-5.4c1.8 1.1 2.3 4.2 2.3 4.2s-4.2.6-5.4-.7 1.5-1.8 1.5-1.8-1.3-3.4 1.6-1.7zm-9.7-5C9.5 5.3 12.9.9 12.9.9s4.8 3.4 3.9 5.4-3.2.1-3.2.1-1.6 2.8-3.1.4zm7.7-.6c1.7-1.3 6.9-1 6.9-1s-.8 4.5-3 5.4c-3.9 1.7-1.9-2.2-1.9-2.2s-4.4-.4-2-2.2zm-1.3 3.3c1.6 2.2-4 6-4 6s-5.8-3.8-4.2-6 4.1.6 4.1.6 2.3-3.2 4.1-.6z"/></symbol><symbol id="logo" viewBox="0 0 256 256"><path fill="#231f20" stroke="#231f20" stroke-miterlimit="10" stroke-width="4.09" d="M160 247H82.3c-1.9 0-3.4-1-3.6-2.3l-10.2-71.6h105.3l-10.2 71.6c-.2 1.3-1.7 2.3-3.6 2.3z"/><path fill="#231f20" stroke="#231f20" stroke-miterlimit="10" stroke-width="4.09" d="M177.1 173.1H65.2a1.8 1.8 0 0 1-1.9-1.4l-2-14.9a1.8 1.8 0 0 1 1.9-1.9h115.9a1.8 1.8 0 0 1 1.9 1.9l-2 14.9a1.8 1.8 0 0 1-1.9 1.4zm-83-46.8c-8.9 16-52.4 18.2-52.4 18.2s-5-33.6 12.2-47.3C80 76.4 74 111.8 74 111.8s35.4-12.6 20.1 14.5zm-36-51.4c-18.2-5.1-30.5-36.1-30.5-36.1S69.7 27.9 82.9 40c22.4 20.4-12.4 17.4-12.4 17.4s18.6 26.3-12.4 17.5z"/><path fill="#231f20" stroke="#231f20" stroke-miterlimit="10" stroke-width="4.09" d="M159.3 134.8c9.1 18.9-22.2 52.9-22.2 52.9s-41.2-25.3-38.3-45.6c4.8-34.4 30.2-3.6 30.2-3.6s14.7-36 30.3-3.7zm20-43.2c14.9 8.9 18.8 34 18.8 34s-33.4 4.8-43.4-6c-16.7-18.3 12.3-14 12.3-14s-10.6-27.8 12.3-14zm-78-39.9c-7.8-12.5 19.2-48.1 19.2-48.1s38.6 27.9 31.7 43.6c-7.8 17.6-25.5.8-25.5.8s-13.3 23.1-25.4 3.7zm62.2-5.5c13.6-10.2 55.9-7.8 55.9-7.8s-7.1 36.5-24.2 43.9c-31.4 13.6-15.8-18.1-15.8-18.1s-35.2-3.4-15.9-18zm-10.3 27.2c12.4 17.2-32.6 47.8-32.6 47.8S74.3 90.5 87.1 73.5c14.9-19.8 33 4.2 33 4.2s18.2-25.1 33.1-4.3z"/></symbol></svg>