<svg xmlns="http://www.w3.org/2000/svg" width="194.4" height="245.4" viewBox="0 0 194.4 245.4"><g fill="#fff" stroke="#231f20" stroke-miterlimit="10" stroke-width="3.14"><path d="M133.5 243.8H56.4c-1.9 0-3.4-1-3.6-2.3l-10.1-71h104.5l-10.1 71c-.2 1.3-1.7 2.3-3.6 2.3z"/><path d="M150.5 170.5H39.4a1.8 1.8 0 0 1-1.9-1.5l-1.9-14.8c-.2-1 .7-1.8 1.9-1.8h114.9a1.8 1.8 0 0 1 2 1.8l-2 14.8a1.8 1.8 0 0 1-1.9 1.5zM68.2 124c-8.9 15.8-52.1 18.1-52.1 18.1s-4.9-33.4 12.1-47c26-20.6 20 14.5 20 14.5s35.1-12.5 20 14.4zM32.4 73C14.3 67.9 2.1 37.1 2.1 37.1S43.9 26.4 57 38.3c22.2 20.2-12.3 17.3-12.3 17.3S63.1 81.7 32.4 73z"/><path d="M132.8 132.4c9.1 18.8-22 52.5-22 52.5s-40.9-25-38-45.2c4.8-34.2 30-3.6 30-3.6s14.5-35.7 30-3.7zm19.9-42.9c14.8 8.9 18.7 33.8 18.7 33.8s-33.2 4.7-43.1-6c-16.6-18.1 12.2-13.9 12.2-13.9s-10.6-27.5 12.2-13.9zM75.2 49.9C67.5 37.6 94.3 2.2 94.3 2.2s38.4 27.7 31.5 43.3c-7.7 17.5-25.3.8-25.3.8s-13.2 23-25.3 3.6zm61.8-5.4c13.5-10.1 55.5-7.7 55.5-7.7s-7.1 36.2-24 43.5c-31.2 13.5-15.7-17.9-15.7-17.9s-35-3.4-15.8-17.9zm-10.2 27c12.3 17.1-32.4 47.4-32.4 47.4S48.5 88.5 61.2 71.6c14.7-19.6 32.7 4.2 32.7 4.2s18.1-25 32.9-4.3z"/></g></svg>