<svg xmlns="http://www.w3.org/2000/svg" width="64" height="64" viewBox="0 0 64 64"><path fill="#231f20" stroke="#231f20" stroke-miterlimit="10" stroke-width="1.03" d="M42.1 62.5H22.6c-.5 0-.9-.2-.9-.5l-2.6-18h26.4L43 62a.9.9 0 0 1-.9.5zM46.3 44h-28c-.3 0-.5-.1-.5-.3l-.5-3.8a.5.5 0 0 1 .5-.4h29a.5.5 0 0 1 .5.4l-.5 3.8c0 .2-.2.3-.5.3zM25.5 32.3c-2.2 4-13.1 4.5-13.1 4.5s-1.3-8.4 3-11.8c6.6-5.2 5.1 3.6 5.1 3.6s8.9-3.1 5 3.7zm-9-12.9c-4.6-1.3-7.7-9.1-7.7-9.1s10.6-2.7 13.9.3c5.6 5.1-3.1 4.4-3.1 4.4s4.7 6.6-3.1 4.4z"/><path fill="#231f20" stroke="#231f20" stroke-miterlimit="10" stroke-width="1.03" d="M41.9 34.4c2.3 4.8-5.6 13.3-5.6 13.3S26 41.3 26.7 36.2c1.2-8.6 7.6-.9 7.6-.9s3.7-9 7.6-.9zm5-10.8c3.7 2.2 4.7 8.5 4.7 8.5s-8.4 1.2-10.9-1.5c-4.2-4.6 3.1-3.5 3.1-3.5s-2.7-7 3.1-3.5zm-19.6-10c-1.9-3.2 4.8-12.1 4.8-12.1s9.7 7 8 10.9-6.4.2-6.4.2-3.3 5.8-6.4 1zm15.6-1.4c3.4-2.6 14-2 14-2s-1.7 9.2-6 11c-7.9 3.4-4-4.5-4-4.5s-8.8-.9-4-4.5zM40.4 19c3.1 4.3-8.2 12-8.2 12s-11.6-7.7-8.4-12 8.2 1.1 8.2 1.1 4.6-6.3 8.4-1.1z"/></svg>