<svg xmlns="http://www.w3.org/2000/svg" width="16" height="16" viewBox="0 0 16 16"><path fill="#231f20" stroke="#231f20" stroke-miterlimit="10" stroke-width=".24" d="M10 15.6H5.1l-.6-4.3h6.3l-.6 4.3zm1-4.4H4.2v-.9c0-.1 0-.1.1-.1h6.9c.1 0 .1 0 .1.1v.9zM6.1 8.5c-.6.9-3.2 1-3.2 1s-.3-2 .8-2.8 1.2.9 1.2.9 2.1-.7 1.2.9zM3.9 5.4c-1.1-.3-1.8-2.1-1.8-2.1s2.5-.7 3.3 0-.8 1.1-.8 1.1 1.1 1.5-.7 1z"/><path fill="#231f20" stroke="#231f20" stroke-miterlimit="10" stroke-width=".24" d="M9.9 9c.6 1.1-1.3 3.1-1.3 3.1s-2.4-1.5-2.3-2.7 1.8-.2 1.8-.2S9 7 9.9 9zm1.2-2.6c.9.5 1.1 2 1.1 2s-2 .3-2.6-.3.8-.9.8-.9-.7-1.6.7-.8zM6.5 4C6 3.3 7.6 1.2 7.6 1.2s2.3 1.6 1.9 2.6-1.5 0-1.5 0-.8 1.4-1.5.2zm3.7-.3c.8-.6 3.3-.5 3.3-.5s-.4 2.2-1.5 2.6-.9-1-.9-1-2.1-.2-.9-1.1zm-.6 1.6c.7 1-2 2.9-2 2.9s-2.7-1.9-2-2.9 2 .3 2 .3 1.1-1.5 2-.3z"/></svg>