<svg xmlns="http://www.w3.org/2000/svg" width="190.4" height="68.9" viewBox="0 0 190.4 68.9"><path fill="#231f20" stroke="#231f20" stroke-miterlimit="10" stroke-width="1.03" d="M38.4 61.9H18.9c-.5 0-.9-.2-.9-.5l-2.6-18h26.4l-2.5 18a.9.9 0 0 1-.9.5zm4.2-18.5h-28c-.3 0-.5-.1-.5-.4l-.5-3.7a.5.5 0 0 1 .5-.5h29a.5.5 0 0 1 .5.5l-.5 3.7c0 .3-.2.4-.5.4zM21.8 31.7c-2.2 4-13.1 4.5-13.1 4.5s-1.3-8.4 3-11.8c6.6-5.2 5.1 3.6 5.1 3.6s8.9-3.1 5 3.7zm-9-12.9c-4.6-1.3-7.7-9.1-7.7-9.1S15.7 7 19 10c5.6 5.1-3.1 4.4-3.1 4.4s4.7 6.6-3.1 4.4z"/><path fill="#231f20" stroke="#231f20" stroke-miterlimit="10" stroke-width="1.03" d="M38.2 33.8c2.3 4.7-5.6 13.3-5.6 13.3S22.3 40.7 23 35.6c1.2-8.6 7.6-.9 7.6-.9s3.7-9 7.6-.9zm5-10.8c3.7 2.2 4.7 8.5 4.7 8.5S39.5 32.7 37 30c-4.2-4.6 3.1-3.5 3.1-3.5s-2.7-7 3.1-3.5zM23.6 12.9c-1.9-3.1 4.8-12 4.8-12s9.7 7 8 10.9-6.4.2-6.4.2-3.3 5.8-6.4.9zm15.6-1.3c3.4-2.6 14-2 14-2s-1.7 9.2-6 11c-7.9 3.4-4-4.5-4-4.5s-8.8-.9-4-4.5zm-2.5 6.8c3.1 4.3-8.2 12-8.2 12s-11.6-7.7-8.4-12 8.2 1.1 8.2 1.1 4.6-6.3 8.4-1.1z"/><path fill="#231f20" d="M74 9.1h3.8v12.6c0 3.1-.9 5.5-2.5 7S71 31 67.6 31s-5.9-.7-7.6-2.3-2.5-3.9-2.5-7V9.1h3.8v12.8a6.1 6.1 0 0 0 1.5 4.5q1.5 1.5 4.8 1.5t4.8-1.5a5.8 5.8 0 0 0 1.6-4.5zm8.7 21.4V14.9h3.6v2.7a7.4 7.4 0 0 1 2.5-2.2 7.1 7.1 0 0 1 3.2-.7h1.7l-.4 3h-1.7a5.3 5.3 0 0 0-3.8 1.3 4 4 0 0 0-1.5 3.1v8.4zm14.1 0V9.1h3.6v8.3a6.9 6.9 0 0 1 2.8-2.2 9.2 9.2 0 0 1 3.8-.8 8.8 8.8 0 0 1 4 1 7.1 7.1 0 0 1 2.8 2.9 9.4 9.4 0 0 1 1 4.3 8.8 8.8 0 0 1-1 4.3 7 7 0 0 1-2.9 3 8.3 8.3 0 0 1-4.3 1.1 7.8 7.8 0 0 1-6.3-2.8v2.3zm3.5-7.4a5.2 5.2 0 0 0 1.4 3.6 5 5 0 0 0 3.9 1.5 5.6 5.6 0 0 0 4.1-1.4 6.1 6.1 0 0 0 1.4-4.2 5 5 0 0 0-5.3-5.4 5.4 5.4 0 0 0-2.2.5 5.2 5.2 0 0 0-1.9 1.2 4 4 0 0 0-1 1.5 3.9 3.9 0 0 0-.4 1.8zm30.5 7.4v-2.2a8.3 8.3 0 0 1-3 2 10.8 10.8 0 0 1-3.8.6 8 8 0 0 1-4.7-1.2 4.1 4.1 0 0 1-1.6-3.5 4.1 4.1 0 0 1 2.1-3.8c1.4-.9 3.7-1.3 6.8-1.4l4.1-.2v-.5c0-2.1-1.4-3.1-4.2-3.1a6.7 6.7 0 0 0-3.1.5 2.2 2.2 0 0 0-1.5 1.5l-3.2-.4a5 5 0 0 1 2.5-3.3 11.5 11.5 0 0 1 5.4-1.1q3.9 0 5.7 1.5a5.7 5.7 0 0 1 1.8 4.6v10zm-.1-7.3h-4.1a11.5 11.5 0 0 0-4 .7 1.9 1.9 0 0 0-1.3 1.9 1.9 1.9 0 0 0 1 1.7 4.9 4.9 0 0 0 2.7.6 6.7 6.7 0 0 0 2.4-.4 6.8 6.8 0 0 0 2.1-1 3.2 3.2 0 0 0 1.2-2.5zm21.1 7.3v-9.4a3.7 3.7 0 0 0-1-2.9 4.1 4.1 0 0 0-3-.9 5.9 5.9 0 0 0-2.2.5 4.2 4.2 0 0 0-1.8 1.1 3.9 3.9 0 0 0-1.4 3.1v8.5h-3.6V14.9h3.5v2.6a8.1 8.1 0 0 1 6.7-3.1 6.2 6.2 0 0 1 4.7 1.6 5.7 5.7 0 0 1 1.7 4.4v10.1zm-77 29.1L61.4 43.4v16.2h-3.7V38.2h3.5l13.4 16.2V38.2h3.7v21.4zm21.4 0V57a8.3 8.3 0 0 1-6.6 3.1 6.5 6.5 0 0 1-4.6-1.5 5.8 5.8 0 0 1-1.6-4.4V44H87v9.5a3.2 3.2 0 0 0 3.7 3.7 5.7 5.7 0 0 0 4-1.6 3.9 3.9 0 0 0 1.4-3V44h3.6v15.6zm8.2 0V44h3.6v2.7a6.8 6.8 0 0 1 2.6-2.2 6.7 6.7 0 0 1 3.1-.7h1.7l-.4 3h-1.7a5.5 5.5 0 0 0-3.8 1.3 4 4 0 0 0-1.5 3.1v8.4zm25-11.3a3.3 3.3 0 0 0-1.5-1.6 11.4 11.4 0 0 0-6 0 1.6 1.6 0 0 0-1.1 1.4 1.5 1.5 0 0 0 .4 1c.2.3.6.4 1.1.6l2.2.5 2 .3a15.8 15.8 0 0 1 4.1.9 4.6 4.6 0 0 1 2 1.5 3.9 3.9 0 0 1 .6 2.3 3.8 3.8 0 0 1-2 3.6c-1.3.9-3.3 1.3-5.9 1.3a10.8 10.8 0 0 1-5.9-1.3 5.5 5.5 0 0 1-2.5-4h3.5a3.2 3.2 0 0 0 1.5 1.9 7.7 7.7 0 0 0 3.4.6c2.9 0 4.4-.7 4.4-2a1.3 1.3 0 0 0-.8-1.2 10.3 10.3 0 0 0-3-.8l-2.1-.3a15.7 15.7 0 0 1-3.9-1 4.6 4.6 0 0 1-2-1.5 4.3 4.3 0 0 1-.6-2.4 3.7 3.7 0 0 1 2.1-3.3 9.7 9.7 0 0 1 5.5-1.3 10.9 10.9 0 0 1 5.4 1.1 5 5 0 0 1 2.5 3.3zm10.3 4.4a4.9 4.9 0 0 0 1.5 3.4 5.6 5.6 0 0 0 3.9 1.3 6.7 6.7 0 0 0 3-.6 3.1 3.1 0 0 0 1.6-1.8h3.6a5.7 5.7 0 0 1-2.7 3.8 10.1 10.1 0 0 1-5.6 1.3 8.7 8.7 0 0 1-6.4-2.2 7.5 7.5 0 0 1-2.4-5.9 9 9 0 0 1 1.1-4.4 7.2 7.2 0 0 1 3-3 10.2 10.2 0 0 1 4.7-1.1 8.9 8.9 0 0 1 6.3 2.1 7.5 7.5 0 0 1 2.2 5.8v1.3zm10.4-2.4a4.3 4.3 0 0 0-1.4-3.1 6 6 0 0 0-3.7-1.1 5.4 5.4 0 0 0-3.6 1.2 4.4 4.4 0 0 0-1.6 3zm7.3 9.3V44h3.6v2.7a6.8 6.8 0 0 1 2.6-2.2 6.7 6.7 0 0 1 3.1-.7h1.7l-.4 3h-1.6a5.6 5.6 0 0 0-3.9 1.3 4 4 0 0 0-1.5 3.1v8.4zm20.1-.6l-7.8-15h4.1l5.5 11.5 5-11.5h3.9l-8 16.9c-.7 1.2-1.3 2.2-1.8 2.9a5.5 5.5 0 0 1-2 1.5 5.4 5.4 0 0 1-2.4.5 8.1 8.1 0 0 1-3.1-.6l.6-2.7a4.8 4.8 0 0 0 2 .4 2.9 2.9 0 0 0 1.9-.6 3.4 3.4 0 0 0 1.3-1.7z"/></svg>