<svg xmlns="http://www.w3.org/2000/svg" width="32" height="32" viewBox="0 0 32 32"><path fill="#231f20" stroke="#231f20" stroke-miterlimit="10" stroke-width=".51" d="M17.8 31.1H8.1c-.2 0-.4-.1-.4-.3l-1.3-8.9h13.1l-1.3 8.9c0 .2-.2.3-.4.3zm2.1-9.2H6l-.3-.2-.2-1.8a.2.2 0 0 1 .2-.2h14.4c.2 0 .3.1.3.2l-.3 1.8a.2.2 0 0 1-.2.2zM9.6 16.1c-1.1 2-6.5 2.3-6.5 2.3s-.6-4.2 1.5-5.9 2.5 1.8 2.5 1.8 4.4-1.6 2.5 1.8zM5.1 9.7c-2.3-.6-3.8-4.5-3.8-4.5s5.2-1.3 6.9.2-1.6 2.1-1.6 2.1S9 10.8 5.1 9.7z"/><path fill="#231f20" stroke="#231f20" stroke-miterlimit="10" stroke-width=".51" d="M17.7 17.2c1.1 2.3-2.8 6.5-2.8 6.5s-5.1-3.1-4.7-5.6c.6-4.3 3.7-.5 3.7-.5s1.8-4.5 3.8-.4zm2.5-5.4c1.8 1.1 2.3 4.2 2.3 4.2s-4.2.6-5.4-.7 1.5-1.8 1.5-1.8-1.3-3.4 1.6-1.7zm-9.7-5C9.5 5.3 12.9.9 12.9.9s4.8 3.4 3.9 5.4-3.2.1-3.2.1-1.6 2.8-3.1.4zm7.7-.6c1.7-1.3 6.9-1 6.9-1s-.8 4.5-3 5.4c-3.9 1.7-1.9-2.2-1.9-2.2s-4.4-.4-2-2.2zm-1.3 3.3c1.6 2.2-4 6-4 6s-5.8-3.8-4.2-6 4.1.6 4.1.6 2.3-3.2 4.1-.6z"/></svg>