<svg xmlns="http://www.w3.org/2000/svg" width="200.7" height="85.5" viewBox="0 0 200.7 85.5"><title>Asset 7ldpi</title><g id="Layer_2" data-name="Layer 2"><g id="Layer_1-2" data-name="Layer 1"><path d="M45.3,84H19.6a1.2,1.2,0,0,1-1.2-.8L15.1,59.6H49.8L46.5,83.2A1.2,1.2,0,0,1,45.3,84Z" fill="#cce5e1"/><path d="M50.9,59.6H14a.7.7,0,0,1-.7-.5l-.6-4.9a.6.6,0,0,1,.6-.7H51.6a.6.6,0,0,1,.6.7l-.6,4.9A.7.7,0,0,1,50.9,59.6Z" fill="#cce5e1"/><path d="M23.5,44.1c-2.9,5.3-17.3,6-17.3,6s-1.5-12.3,4-15.6c9.5-5.7,6.7,4.8,6.7,4.8S28.6,35.1,23.5,44.1Z" fill="#cce5e1"/><path d="M10.3,29.1C4.1,28.1,0,17.3,0,17.3s12.4-4,17.2-.5c8.1,5.8-3.5,6.1-3.5,6.1S20.8,30.9,10.3,29.1Z" fill="#cce5e1"/><path d="M45,46.9c3.1,6.3-7.3,17.5-7.3,17.5S24.1,56,25.1,49.3c1.6-11.4,10-1.2,10-1.2S39.9,36.2,45,46.9Z" fill="#cce5e1"/><path d="M55.7,33.9c5.4,1.9,6.8,12.4,6.8,12.4s-12.2,1.8-15.8-2.2c-6.2-6.6,4.5-5.1,4.5-5.1S46.4,30.6,55.7,33.9Z" fill="#cce5e1"/><path d="M23.8,16.3C21.6,10,32.9,0,32.9,0S45.1,9.3,43.4,15.7c-2.8,10.9-9.8.3-9.8.3S27.5,27.1,23.8,16.3Z" fill="#cce5e1"/><path d="M46.5,17.7c4.2-4.6,18.4-2.6,18.4-2.6s-1.7,12.3-8,14.5c-10.7,3.7-5.2-6-5.2-6S39.2,25.4,46.5,17.7Z" fill="#cce5e1"/><path d="M43.1,26.6c4,5.7-10.8,15.8-10.8,15.8S17,32.3,21.2,26.7s10.9,1.4,10.9,1.4S38.1,19.7,43.1,26.6Z" fill="#cce5e1"/><path d="M76.1,70.9a28.9,28.9,0,0,1-.7,6.3c-.5,2.7-1.3,4.6-2.3,5.6a5.9,5.9,0,0,1-4.6,2,6.8,6.8,0,0,1-4.3-1.5,7.9,7.9,0,0,1-2.7-4.4,20.2,20.2,0,0,1-.5-5.4c0-1.1,0-2.7.2-4.9s.2-3.9.2-5a3.1,3.1,0,0,0-.2-.8,1.8,1.8,0,0,1-.2-.9c0-.6.4-1,1.4-1.4a5.4,5.4,0,0,1,2.2-.5c.8,0,1.2.3,1.2.8a2.4,2.4,0,0,1-.4,1.1,3.5,3.5,0,0,0-.3,1.2c0,.9-.2,2.4-.4,4.3s-.4,3.4-.4,4.4v4.4a8,8,0,0,0,.8,3.6,3.2,3.2,0,0,0,2.9,2c2.3,0,3.9-2.2,4.7-6.6a56.2,56.2,0,0,0,.5-9.5,8.1,8.1,0,0,0-.7-3.8,2.5,2.5,0,0,1-.2-.7,2.4,2.4,0,0,1,.5-1.3,1.4,1.4,0,0,1,1.1-.6,3,3,0,0,1,1.5.5,1.4,1.4,0,0,1,.7,1.2Z" fill="#f3f3f4"/><path d="M88.1,71.7a2.8,2.8,0,0,1-.1.8,2.1,2.1,0,0,1-1.6,1.1,1.7,1.7,0,0,1-1.2-.8c0-1.1-.4-1.6-1.1-1.6s-1,1.1-1.6,3.4a15.3,15.3,0,0,0-.4,4.1,15.1,15.1,0,0,0,.2,3.1,4.2,4.2,0,0,1,.3.9,1.1,1.1,0,0,1-.6,1,1.6,1.6,0,0,1-1.2.4c-1.3,0-1.9-.6-1.9-1.8a1.1,1.1,0,0,1,.1-.5,4.3,4.3,0,0,1,.1-.5c0-1.2-.1-3-.2-5.4s-.2-4.2-.2-5.3.7-1.7,1.9-1.7a1.9,1.9,0,0,1,1.6.7,3.1,3.1,0,0,1,2.3-1.1,3.3,3.3,0,0,1,1.6.5,4.6,4.6,0,0,1,1.3,1.2A3.3,3.3,0,0,1,88.1,71.7Z" fill="#f3f3f4"/><path d="M101.8,75.9a12.7,12.7,0,0,1-1.1,5.4,4.6,4.6,0,0,1-4.4,2.9,11.3,11.3,0,0,1-2.9-.6V84c0,.8-.4,1.2-1.3,1.2a1.8,1.8,0,0,1-1.5-.7,4.9,4.9,0,0,1-.5-2.2c-.1-1.1-.2-1.9-.2-2.5h0l.5-20.2a1.4,1.4,0,0,1,1.4-.8h.4a1.7,1.7,0,0,1,1.2.8,3,3,0,0,1,.5,1.5,37.4,37.4,0,0,1-.3,4.1c-.2,2-.3,3.3-.4,4a3.4,3.4,0,0,1,2.7-1.2,5.6,5.6,0,0,1,3.6,1.4,7,7,0,0,1,2,3.4A14.2,14.2,0,0,1,101.8,75.9Zm-3.3-.3q0-4.8-2.1-4.8c-1.1,0-2,.8-2.6,2.4a13.4,13.4,0,0,0-.6,4q0,4.5,2.7,4.5C97.6,81.7,98.5,79.7,98.5,75.6Z" fill="#f3f3f4"/><path d="M116.7,77.9a46.8,46.8,0,0,1-.3,6.5c-.1.8-.6,1.1-1.5,1.1s-1.9-.6-1.8-2a8.1,8.1,0,0,1-3.7.9,7,7,0,0,1-3.5-.9c-1.4-.8-2.1-1.7-2.1-2.9s.8-2.1,2.3-3.1a7.2,7.2,0,0,1,3.9-1.3h3.1v-.9c0-2.5-.7-3.7-2.2-3.7s-2.9.9-2.9,2.6-.3.9-1,.9a1.7,1.7,0,0,1-1.2-.6,1.3,1.3,0,0,1-.7-1.1,4.2,4.2,0,0,1,1.4-3.3,4.9,4.9,0,0,1,3.5-1.3C114.4,68.8,116.7,71.8,116.7,77.9Zm-3.6,1.3c0-.5-.4-.7-1.1-.7q-4.5,0-4.5,2.1c0,.8.7,1.1,2,1.1a4.6,4.6,0,0,0,2.3-.6A2.4,2.4,0,0,0,113.1,79.2Z" fill="#f3f3f4"/><path d="M132.3,83.7a1.6,1.6,0,0,1-1.4.9,6,6,0,0,1-2-.8v-.4c0-.5.1-1.3.1-2.3V78.8c0-5.1-.7-7.6-2.3-7.6s-.9.3-1.4,1a11.1,11.1,0,0,0-2.5,7.4,6.9,6.9,0,0,0,.2,1.8c.1.8.2,1.4.2,1.8a.9.9,0,0,1-.4.8l-1,.3c-1.5,0-2.2-.9-2.2-2.7V74.2a3.4,3.4,0,0,1,.1-.9c0-.3.1-.6.1-.8a10.5,10.5,0,0,0-.2-1.3,5.7,5.7,0,0,1-.1-1.2c0-.4.2-.7.7-1.1a2.1,2.1,0,0,1,1.2-.5,2.4,2.4,0,0,1,1.6.9v1.4a3.6,3.6,0,0,1,3.2-2.1,5.1,5.1,0,0,1,2.7.9,6.1,6.1,0,0,1,2,1.9,14.8,14.8,0,0,1,1.5,7.2Z" fill="#f3f3f4"/><path d="M157.3,81.3a2,2,0,0,1-.3,1.1.9.9,0,0,1-.8.6h-.8a16.7,16.7,0,0,0-4.5.9,16.1,16.1,0,0,1-4.4.9c-3.9,0-5.8-2.9-5.8-8.7a102.2,102.2,0,0,1,.4-10.8v-.6a2.8,2.8,0,0,0-.1-.8v-.6a1.8,1.8,0,0,1,1.7-2l5.5-1a30.1,30.1,0,0,1,5.4-.7,4.1,4.1,0,0,1,1.9.4,1.5,1.5,0,0,1,1,1.4c0,.8-.5,1.3-1.7,1.3h-1.3a31.1,31.1,0,0,0-7.9,1.3H145c-.1,0-.3.2-.3.5a32.9,32.9,0,0,0-.4,6.7c0,.5.2.8.7.8a11.4,11.4,0,0,0,2.6-.5,13.1,13.1,0,0,1,2.7-.5,6.4,6.4,0,0,1,2.4.7,5.1,5.1,0,0,1,.4,1.4q0,.9-.6.9l-1.1.2-.8-.2-3,.3c-1,.2-2,.5-3,.6h-.3c-.1,0-.2.2-.3.4v1.1a23,23,0,0,0,.1,3.3c.2,1.3.9,2,1.9,2a12.6,12.6,0,0,0,4-.8,16.1,16.1,0,0,1,4.1-.8C155.8,80.1,156.8,80.5,157.3,81.3Z" fill="#f3f3f4"/><path d="M172.3,62.3a7.9,7.9,0,0,1-.2,2,18.8,18.8,0,0,0-.3,2c-.1.7-.2,2.9-.4,6.5s-.2,5.7-.2,6a14.1,14.1,0,0,0,.7,5.2c-.4.7-.8,1-1.3,1a2,2,0,0,1-1.5-.6,2.1,2.1,0,0,1-.7-1.5,5.3,5.3,0,0,1-3.5,1.6,5,5,0,0,1-4-1.9,6.5,6.5,0,0,1-1.3-4.3,16.6,16.6,0,0,1,1.3-6.4c1.1-2.7,2.5-4.1,4.3-4.1a5.3,5.3,0,0,1,3.2,1.4c.1-1.1.1-4,.1-8.6,0-.4.4-.6,1-.6a4.2,4.2,0,0,1,2,.5A1.9,1.9,0,0,1,172.3,62.3Zm-4.1,12.1a5.1,5.1,0,0,0-.5-2.2,2.1,2.1,0,0,0-1.8-1.3c-1.1,0-1.9,1.1-2.5,3.2a18.6,18.6,0,0,0-.6,4.5c0,2.2.6,3.4,1.9,3.4s2.3-1,2.9-3A16,16,0,0,0,168.2,74.4Z" fill="#f3f3f4"/><path d="M185.9,80.8c0,1.2-.8,2.2-2.4,2.8a9.2,9.2,0,0,1-4,.8c-3.6,0-5.5-2.1-5.5-6.2a14.6,14.6,0,0,1,1.3-5.8c1-2.5,2.2-3.8,3.7-3.8a7.4,7.4,0,0,1,4.2,1.7c1.5,1.2,2.3,2.4,2.3,3.7a4.2,4.2,0,0,1-2.1,3.7A7.4,7.4,0,0,1,179,79a4.3,4.3,0,0,1-1.7-.6c.1,2.2.8,3.4,2,3.4a5.9,5.9,0,0,0,3.1-.9,5.7,5.7,0,0,1,2-.9C185.4,80,185.9,80.3,185.9,80.8ZM182,74.1a2.6,2.6,0,0,0-.5-1.7,1.6,1.6,0,0,0-1.4-.8,1.9,1.9,0,0,0-1.8,1,4.6,4.6,0,0,0-.5,2.1,1.2,1.2,0,0,0,.4,1.1,1.7,1.7,0,0,0,1.2.5C181.2,76.3,182,75.5,182,74.1Z" fill="#f3f3f4"/><path d="M200.7,83.7a1.5,1.5,0,0,1-1.3.9,5.3,5.3,0,0,1-2-.8V81.1a22,22,0,0,0,.1-2.3c0-5.1-.8-7.6-2.3-7.6s-.9.3-1.5,1a11.6,11.6,0,0,0-2.5,7.4c0,.4.1,1,.2,1.8a8.2,8.2,0,0,1,.3,1.8,1,1,0,0,1-.5.8,1.7,1.7,0,0,1-1,.3q-2.1,0-2.1-2.7V73.3a2.5,2.5,0,0,0,.1-.8,7.2,7.2,0,0,0-.1-1.3A5.7,5.7,0,0,1,188,70a1.5,1.5,0,0,1,.6-1.1,2.8,2.8,0,0,1,1.2-.5,2.2,2.2,0,0,1,1.6.9v1.4a3.9,3.9,0,0,1,3.3-2.1,4.8,4.8,0,0,1,2.6.9,7.8,7.8,0,0,1,2.1,1.9,16.2,16.2,0,0,1,1.4,7.2Z" fill="#f3f3f4"/></g></g></svg>