<svg xmlns="http://www.w3.org/2000/svg" width="256" height="256" viewBox="0 0 256 256"><path fill="#231f20" stroke="#231f20" stroke-miterlimit="10" stroke-width="4.09" d="M160 247H82.3c-1.9 0-3.4-1-3.6-2.3l-10.2-71.6h105.3l-10.2 71.6c-.2 1.3-1.7 2.3-3.6 2.3z"/><path fill="#231f20" stroke="#231f20" stroke-miterlimit="10" stroke-width="4.09" d="M177.1 173.1H65.2a1.8 1.8 0 0 1-1.9-1.4l-2-14.9a1.8 1.8 0 0 1 1.9-1.9h115.9a1.8 1.8 0 0 1 1.9 1.9l-2 14.9a1.8 1.8 0 0 1-1.9 1.4zm-83-46.8c-8.9 16-52.4 18.2-52.4 18.2s-5-33.6 12.2-47.3C80 76.4 74 111.8 74 111.8s35.4-12.6 20.1 14.5zm-36-51.4c-18.2-5.1-30.5-36.1-30.5-36.1S69.7 27.9 82.9 40c22.4 20.4-12.4 17.4-12.4 17.4s18.6 26.3-12.4 17.5z"/><path fill="#231f20" stroke="#231f20" stroke-miterlimit="10" stroke-width="4.09" d="M159.3 134.8c9.1 18.9-22.2 52.9-22.2 52.9s-41.2-25.3-38.3-45.6c4.8-34.4 30.2-3.6 30.2-3.6s14.7-36 30.3-3.7zm20-43.2c14.9 8.9 18.8 34 18.8 34s-33.4 4.8-43.4-6c-16.7-18.3 12.3-14 12.3-14s-10.6-27.8 12.3-14zm-78-39.9c-7.8-12.5 19.2-48.1 19.2-48.1s38.6 27.9 31.7 43.6c-7.8 17.6-25.5.8-25.5.8s-13.3 23.1-25.4 3.7zm62.2-5.5c13.6-10.2 55.9-7.8 55.9-7.8s-7.1 36.5-24.2 43.9c-31.4 13.6-15.8-18.1-15.8-18.1s-35.2-3.4-15.9-18zm-10.3 27.2c12.4 17.2-32.6 47.8-32.6 47.8S74.3 90.5 87.1 73.5c14.9-19.8 33 4.2 33 4.2s18.2-25.1 33.1-4.3z"/></svg>