<svg xmlns="http://www.w3.org/2000/svg" width="517.9" height="524.4" viewBox="0 0 517.9 524.4"><circle cx="260.2" cy="268.8" r="106.7" fill="#4d4f5c"/><path fill="#4d4f5c" d="M255.9 67.5l-18.6 80.8a2 2 0 0 0 2 2.5h37.2a2 2 0 0 0 2-2.5l-18.6-80.8a2.1 2.1 0 0 0-4 0zm-141.1 62l44 70.3a2 2 0 0 0 3.2.3l26.3-26.3a2 2 0 0 0-.3-3.2l-70.3-44a2.1 2.1 0 0 0-2.9 2.9zM58.9 273.1l80.8 18.6a2.1 2.1 0 0 0 2.5-2.1v-37.2a2 2 0 0 0-2.5-2L58.9 269a2.1 2.1 0 0 0 0 4.1zm62 141l70.2-43.9a2.1 2.1 0 0 0 .4-3.3l-26.3-26.3a2 2 0 0 0-3.2.4l-44 70.3a2.1 2.1 0 0 0 2.9 2.8zm143.5 56l18.6-80.8a2.1 2.1 0 0 0-2-2.6h-37.2a2.1 2.1 0 0 0-2 2.6l18.6 80.8a2.1 2.1 0 0 0 4 0zm141.1-62l-44-70.3a2.1 2.1 0 0 0-3.2-.4L332 363.7a2.1 2.1 0 0 0 .4 3.3l70.2 43.9a2.1 2.1 0 0 0 2.9-2.8zm55.9-143.6l-80.7-18.6a2.1 2.1 0 0 0-2.6 2v37.2a2.1 2.1 0 0 0 2.6 2.1l80.7-18.6a2.1 2.1 0 0 0 0-4.1zm-61.9-141.1l-70.3 44a2.1 2.1 0 0 0-.4 3.2l26.3 26.3a2.1 2.1 0 0 0 3.3-.3l43.9-70.3a2.1 2.1 0 0 0-2.8-2.9zM326 101.2l-35.2 49.5a1.5 1.5 0 0 0 .6 2.3l25.2 10.4a1.5 1.5 0 0 0 2.1-1.2l10.1-59.9a1.5 1.5 0 0 0-2.8-1.1zm-137.8 2.5l10.1 59.9a1.5 1.5 0 0 0 2.1 1.2l25.2-10.5a1.5 1.5 0 0 0 .6-2.3l-35.3-49.5a1.5 1.5 0 0 0-2.7 1.2zm-95.7 99.2l49.5 35.3a1.5 1.5 0 0 0 2.3-.7l10.5-25.2a1.5 1.5 0 0 0-1.2-2.1l-59.9-10a1.5 1.5 0 0 0-1.2 2.7zm2.6 137.8l59.9-10a1.6 1.6 0 0 0 1.2-2.1l-10.5-25.2a1.6 1.6 0 0 0-2.3-.7L93.9 338a1.5 1.5 0 0 0 1.2 2.7zm99.2 95.7l35.3-49.5a1.6 1.6 0 0 0-.7-2.3l-25.2-10.4a1.5 1.5 0 0 0-2.1 1.1l-10 60a1.5 1.5 0 0 0 2.7 1.1zm137.8-2.5l-10-60a1.5 1.5 0 0 0-2.1-1.1l-25.2 10.4a1.5 1.5 0 0 0-.7 2.3l35.3 49.5a1.5 1.5 0 0 0 2.7-1.1zm95.7-99.3l-49.5-35.2a1.5 1.5 0 0 0-2.3.6l-10.4 25.2a1.5 1.5 0 0 0 1.1 2.1l60 10.1a1.6 1.6 0 0 0 1.1-2.8zm-2.5-137.8l-60 10.1a1.5 1.5 0 0 0-1.1 2.1l10.4 25.2a1.5 1.5 0 0 0 2.3.6l49.5-35.2a1.5 1.5 0 0 0-1.1-2.8z"/></svg>