<svg xmlns="http://www.w3.org/2000/svg" width="1441.3" height="594" viewBox="0 0 1441.3 594"><circle cx="264.5" cy="261" r="106.7" fill="#4d4f5c"/><path fill="#4d4f5c" d="M260.2 59.7l-18.6 80.8a2 2 0 0 0 2 2.5h37.3a2 2 0 0 0 2-2.5l-18.6-80.8a2.1 2.1 0 0 0-4.1 0zm-141 62l43.9 70.3a2.1 2.1 0 0 0 3.3.3l26.3-26.3a2.1 2.1 0 0 0-.4-3.2l-70.3-44a2.1 2.1 0 0 0-2.8 2.9zm-56 143.6l80.8 18.6a2.1 2.1 0 0 0 2.6-2.1v-37.2a2.1 2.1 0 0 0-2.6-2l-80.8 18.6a2.1 2.1 0 0 0 0 4.1zm62 141l70.3-43.9a2.1 2.1 0 0 0 .3-3.3l-26.3-26.3a2.1 2.1 0 0 0-3.2.4l-44 70.3a2.1 2.1 0 0 0 2.9 2.8zm143.6 56l18.6-80.8a2.1 2.1 0 0 0-2-2.6h-37.3a2.1 2.1 0 0 0-2 2.6l18.6 80.8a2.1 2.1 0 0 0 4.1 0zm141-62L365.9 330a2.2 2.2 0 0 0-3.3-.4l-26.3 26.3a2.2 2.2 0 0 0 .4 3.3l70.3 43.9a2 2 0 0 0 2.8-2.8zm56-143.6L385 238.1a2.1 2.1 0 0 0-2.6 2v37.2a2.1 2.1 0 0 0 2.6 2.1l80.8-18.6a2.1 2.1 0 0 0 0-4.1zm-62-141.1l-70.3 44a2 2 0 0 0-.3 3.2l26.3 26.3a2 2 0 0 0 3.2-.3l44-70.3a2.1 2.1 0 0 0-2.9-2.9zm-73.4-22.2l-35.3 49.5a1.5 1.5 0 0 0 .6 2.3l25.3 10.4a1.4 1.4 0 0 0 2-1.2l10.1-59.9a1.5 1.5 0 0 0-2.7-1.1zm-137.9 2.5l10.1 59.9a1.5 1.5 0 0 0 2.1 1.2l25.2-10.5a1.5 1.5 0 0 0 .7-2.2l-35.3-49.6a1.6 1.6 0 0 0-2.8 1.2zm-95.6 99.2l49.5 35.3a1.5 1.5 0 0 0 2.3-.7l10.4-25.2a1.5 1.5 0 0 0-1.1-2.1l-60-10a1.5 1.5 0 0 0-1.1 2.7zm2.5 137.8l59.9-10a1.5 1.5 0 0 0 1.2-2.1l-10.4-25.2a1.6 1.6 0 0 0-2.3-.7l-49.5 35.3a1.5 1.5 0 0 0 1.1 2.7zm99.2 95.7l35.3-49.5a1.5 1.5 0 0 0-.6-2.3L208 366.4a1.4 1.4 0 0 0-2 1.1l-10.1 60a1.5 1.5 0 0 0 2.7 1.1zm137.9-2.5l-10.1-60a1.5 1.5 0 0 0-2.1-1.1l-25.2 10.4a1.6 1.6 0 0 0-.7 2.3l35.3 49.5a1.5 1.5 0 0 0 2.8-1.1zm95.6-99.3l-49.5-35.2a1.5 1.5 0 0 0-2.3.6l-10.4 25.2a1.5 1.5 0 0 0 1.1 2.1l60 10.1a1.5 1.5 0 0 0 1.1-2.8zM429.6 189l-59.9 10.1a1.5 1.5 0 0 0-1.2 2.1l10.4 25.2a1.5 1.5 0 0 0 2.3.6l49.5-35.2a1.5 1.5 0 0 0-1.1-2.8z"/><circle cx="710.8" cy="261" r="106.7" fill="#4d4f5c"/><path fill="#4d4f5c" d="M706.5 59.7l-18.6 80.8a2.1 2.1 0 0 0 2.1 2.5h37.2a2 2 0 0 0 2-2.5l-18.6-80.8a2.1 2.1 0 0 0-4.1 0zm-141 62l43.9 70.3a2.1 2.1 0 0 0 3.3.3L639 166a2.1 2.1 0 0 0-.4-3.2l-70.3-44a2.1 2.1 0 0 0-2.8 2.9zm-56 143.6l80.8 18.6a2.1 2.1 0 0 0 2.6-2.1v-37.2a2.1 2.1 0 0 0-2.6-2l-80.8 18.6a2.1 2.1 0 0 0 0 4.1zm62 141l70.3-43.9a2.2 2.2 0 0 0 .4-3.3l-26.4-26.3a2.1 2.1 0 0 0-3.2.4l-44 70.3a2.1 2.1 0 0 0 2.9 2.8zm143.6 56l18.6-80.8a2.1 2.1 0 0 0-2-2.6h-37.2a2.1 2.1 0 0 0-2.1 2.6l18.6 80.8a2.1 2.1 0 0 0 4.1 0zm141.1-62l-44-70.3a2.1 2.1 0 0 0-3.2-.4l-26.4 26.3a2.2 2.2 0 0 0 .4 3.3l70.3 43.9a2.1 2.1 0 0 0 2.9-2.8zm55.9-143.6l-80.8-18.6a2 2 0 0 0-2.5 2v37.2a2.1 2.1 0 0 0 2.5 2.1l80.8-18.6a2.1 2.1 0 0 0 0-4.1zm-62-141.1l-70.3 44a2 2 0 0 0-.3 3.2l26.3 26.3a2 2 0 0 0 3.2-.3l44-70.3a2.1 2.1 0 0 0-2.9-2.9zm-73.4-22.2l-35.3 49.5a1.5 1.5 0 0 0 .7 2.3l25.2 10.4a1.4 1.4 0 0 0 2-1.2l10.1-59.9a1.5 1.5 0 0 0-2.7-1.1zm-137.9 2.5l10.1 59.9a1.5 1.5 0 0 0 2.1 1.2l25.2-10.5a1.5 1.5 0 0 0 .7-2.2l-35.3-49.6a1.6 1.6 0 0 0-2.8 1.2zm-95.6 99.2l49.5 35.3a1.5 1.5 0 0 0 2.3-.7l10.4-25.2a1.5 1.5 0 0 0-1.1-2.1l-60-10a1.5 1.5 0 0 0-1.1 2.7zm2.5 137.8l60-10a1.5 1.5 0 0 0 1.1-2.1l-10.4-25.2a1.6 1.6 0 0 0-2.3-.7l-49.5 35.3a1.5 1.5 0 0 0 1.1 2.7zm99.3 95.7l35.2-49.5a1.5 1.5 0 0 0-.6-2.3l-25.2-10.4a1.5 1.5 0 0 0-2.1 1.1l-10.1 60a1.5 1.5 0 0 0 2.8 1.1zm137.8-2.5l-10.1-60a1.5 1.5 0 0 0-2.1-1.1l-25.2 10.4a1.5 1.5 0 0 0-.6 2.3l35.2 49.5a1.5 1.5 0 0 0 2.8-1.1zm95.6-99.3l-49.5-35.2a1.5 1.5 0 0 0-2.3.6l-10.4 25.2a1.5 1.5 0 0 0 1.2 2.1l59.9 10.1a1.5 1.5 0 0 0 1.1-2.8zM875.9 189L816 199.1a1.5 1.5 0 0 0-1.2 2.1l10.4 25.2a1.5 1.5 0 0 0 2.3.6l49.5-35.2a1.5 1.5 0 0 0-1.1-2.8z"/><circle cx="1157.1" cy="261" r="106.7" fill="#4d4f5c"/><path fill="#4d4f5c" d="M1152.8 59.7l-18.6 80.8a2.1 2.1 0 0 0 2.1 2.5h37.2a2 2 0 0 0 2-2.5l-18.6-80.8a2.1 2.1 0 0 0-4.1 0zm-141 62l43.9 70.3a2.1 2.1 0 0 0 3.3.3l26.3-26.3a2 2 0 0 0-.4-3.2l-70.3-44a2.1 2.1 0 0 0-2.8 2.9zm-56 143.6l80.8 18.6a2.1 2.1 0 0 0 2.6-2.1v-37.2a2.1 2.1 0 0 0-2.6-2l-80.8 18.6a2.1 2.1 0 0 0 0 4.1zm62 141l70.3-43.9a2.2 2.2 0 0 0 .4-3.3l-26.3-26.3a2.2 2.2 0 0 0-3.3.4l-43.9 70.3a2 2 0 0 0 2.8 2.8zm143.6 56l18.6-80.8a2.1 2.1 0 0 0-2-2.6h-37.2a2.1 2.1 0 0 0-2.1 2.6l18.6 80.8a2.1 2.1 0 0 0 4.1 0zm141.1-62l-44-70.3a2.1 2.1 0 0 0-3.2-.4l-26.3 26.3a2.1 2.1 0 0 0 .3 3.3l70.3 43.9a2.1 2.1 0 0 0 2.9-2.8zm55.9-143.6l-80.8-18.6a2 2 0 0 0-2.5 2v37.2a2.1 2.1 0 0 0 2.5 2.1l80.8-18.6a2.1 2.1 0 0 0 0-4.1zm-62-141.1l-70.3 44a2 2 0 0 0-.3 3.2l26.3 26.3a2 2 0 0 0 3.2-.3l44-70.3a2.1 2.1 0 0 0-2.9-2.9zM1223 93.4l-35.3 49.5a1.5 1.5 0 0 0 .7 2.3l25.2 10.4a1.5 1.5 0 0 0 2.1-1.2l10-59.9a1.5 1.5 0 0 0-2.7-1.1zm-137.8 2.5l10 59.9a1.5 1.5 0 0 0 2.1 1.2l25.2-10.5a1.5 1.5 0 0 0 .7-2.2l-35.3-49.6a1.5 1.5 0 0 0-2.7 1.2zm-95.7 99.2l49.5 35.3a1.5 1.5 0 0 0 2.3-.7l10.4-25.2a1.5 1.5 0 0 0-1.1-2.1l-60-10a1.5 1.5 0 0 0-1.1 2.7zm2.5 137.8l60-10a1.5 1.5 0 0 0 1.1-2.1l-10.4-25.2a1.6 1.6 0 0 0-2.3-.7l-49.5 35.3a1.5 1.5 0 0 0 1.1 2.7zm99.3 95.7l35.2-49.5a1.5 1.5 0 0 0-.6-2.3l-25.2-10.4a1.5 1.5 0 0 0-2.1 1.1l-10.1 60a1.5 1.5 0 0 0 2.8 1.1zm137.8-2.5l-10.1-60a1.5 1.5 0 0 0-2.1-1.1l-25.2 10.4a1.5 1.5 0 0 0-.6 2.3l35.2 49.5a1.5 1.5 0 0 0 2.8-1.1zm95.6-99.3l-49.5-35.2a1.5 1.5 0 0 0-2.3.6l-10.4 25.2a1.5 1.5 0 0 0 1.2 2.1l59.9 10.1a1.5 1.5 0 0 0 1.1-2.8zm-2.5-137.8l-59.9 10.1a1.5 1.5 0 0 0-1.2 2.1l10.5 25.2a1.4 1.4 0 0 0 2.2.6l49.6-35.2a1.6 1.6 0 0 0-1.2-2.8z"/></svg>