<svg xmlns="http://www.w3.org/2000/svg" width="922.2" height="544.7" viewBox="0 0 922.2 544.7"><circle cx="234.5" cy="249.8" r="106.7" fill="#4d4f5c"/><path fill="#4d4f5c" d="M230.2 48.5l-18.6 80.8a2.1 2.1 0 0 0 2 2.6h37.2a2.1 2.1 0 0 0 2-2.6l-18.6-80.8a2.1 2.1 0 0 0-4 0zm-141.1 62l44 70.3a2.1 2.1 0 0 0 3.2.4l26.3-26.4a2 2 0 0 0-.3-3.2L92 107.7a2.1 2.1 0 0 0-2.9 2.8zM33.2 254.1l80.8 18.6a2 2 0 0 0 2.5-2v-37.2a2.1 2.1 0 0 0-2.5-2.1L33.2 250a2.1 2.1 0 0 0 0 4.1zm62 141.1l70.2-44a2 2 0 0 0 .4-3.2l-26.3-26.4a2.1 2.1 0 0 0-3.2.4l-44 70.3a2.1 2.1 0 0 0 2.9 2.9zm143.5 55.9l18.6-80.8a2 2 0 0 0-2-2.5h-37.2a2 2 0 0 0-2 2.5l18.6 80.8a2.1 2.1 0 0 0 4 0zm141.1-62l-44-70.3a2 2 0 0 0-3.2-.3l-26.3 26.3a2 2 0 0 0 .4 3.2l70.2 44a2.1 2.1 0 0 0 2.9-2.9zm55.9-143.6L355 226.9a2.1 2.1 0 0 0-2.6 2.1v37.2a2.1 2.1 0 0 0 2.6 2l80.7-18.6a2.1 2.1 0 0 0 0-4.1zm-61.9-141l-70.3 43.9a2.2 2.2 0 0 0-.4 3.3l26.3 26.3a2.2 2.2 0 0 0 3.3-.4l43.9-70.3a2 2 0 0 0-2.8-2.8zm-73.5-22.3L265 131.7a1.6 1.6 0 0 0 .7 2.3l25.2 10.4a1.5 1.5 0 0 0 2.1-1.1l10.1-60a1.5 1.5 0 0 0-2.8-1.1zm-137.8 2.5l10.1 60a1.5 1.5 0 0 0 2.1 1.1l25.2-10.4a1.5 1.5 0 0 0 .6-2.3l-35.3-49.5a1.5 1.5 0 0 0-2.7 1.1zM66.8 184l49.5 35.2a1.5 1.5 0 0 0 2.3-.6l10.5-25.2a1.5 1.5 0 0 0-1.2-2.1L68 181.2a1.6 1.6 0 0 0-1.2 2.8zm2.6 137.8l59.9-10.1a1.6 1.6 0 0 0 1.2-2.1L120 284.4a1.5 1.5 0 0 0-2.3-.6L68.2 319a1.6 1.6 0 0 0 1.2 2.8zm99.2 95.6l35.3-49.5a1.6 1.6 0 0 0-.7-2.3L178 355.2a1.5 1.5 0 0 0-2.1 1.2l-10 59.9a1.5 1.5 0 0 0 2.7 1.1zm137.8-2.5l-10-59.9a1.5 1.5 0 0 0-2.1-1.2l-25.2 10.5a1.4 1.4 0 0 0-.7 2.2l35.3 49.5a1.5 1.5 0 0 0 2.7-1.1zm95.7-99.2l-49.5-35.3a1.5 1.5 0 0 0-2.3.7l-10.5 25.2a1.6 1.6 0 0 0 1.2 2.1l60 10a1.5 1.5 0 0 0 1.1-2.7zm-2.5-137.8l-60 10a1.5 1.5 0 0 0-1.1 2.1l10.4 25.2a1.6 1.6 0 0 0 2.3.7l49.5-35.3a1.5 1.5 0 0 0-1.1-2.7z"/><circle cx="680.8" cy="249.8" r="106.7" fill="#4d4f5c"/><path fill="#4d4f5c" d="M676.5 48.5l-18.6 80.8a2.1 2.1 0 0 0 2 2.6h37.2a2.1 2.1 0 0 0 2.1-2.6l-18.7-80.8a2.1 2.1 0 0 0-4 0zm-141.1 62l44 70.3a2.1 2.1 0 0 0 3.2.4l26.3-26.4a2 2 0 0 0-.3-3.2l-70.3-43.9a2.1 2.1 0 0 0-2.9 2.8zm-55.9 143.6l80.8 18.6a2 2 0 0 0 2.5-2v-37.2a2.1 2.1 0 0 0-2.5-2.1L479.5 250a2.1 2.1 0 0 0 0 4.1zm62 141.1l70.3-44a2 2 0 0 0 .3-3.2l-26.3-26.4a2.1 2.1 0 0 0-3.2.4l-44 70.3a2.1 2.1 0 0 0 2.9 2.9zM685 451.1l18.7-80.8a2.1 2.1 0 0 0-2.1-2.5h-37.2a2 2 0 0 0-2 2.5l18.6 80.8a2.1 2.1 0 0 0 4 0zm141.1-62l-44-70.3a2 2 0 0 0-3.2-.3l-26.3 26.3a2 2 0 0 0 .4 3.2l70.3 44a2.1 2.1 0 0 0 2.8-2.9zM882 245.5l-80.7-18.6a2.1 2.1 0 0 0-2.6 2.1v37.2a2.1 2.1 0 0 0 2.6 2l80.7-18.6a2.1 2.1 0 0 0 0-4.1zm-61.9-141l-70.3 43.9a2.2 2.2 0 0 0-.4 3.3l26.3 26.3a2.2 2.2 0 0 0 3.3-.4l43.9-70.3a2 2 0 0 0-2.8-2.8zm-73.5-22.3l-35.2 49.5a1.5 1.5 0 0 0 .6 2.3l25.2 10.4a1.5 1.5 0 0 0 2.1-1.1l10.1-60a1.5 1.5 0 0 0-2.8-1.1zm-137.8 2.5l10.1 60a1.5 1.5 0 0 0 2.1 1.1l25.2-10.4a1.5 1.5 0 0 0 .6-2.3l-35.2-49.5a1.5 1.5 0 0 0-2.8 1.1zM513.1 184l49.6 35.2a1.4 1.4 0 0 0 2.2-.6l10.5-25.2a1.5 1.5 0 0 0-1.2-2.1l-59.9-10.1a1.6 1.6 0 0 0-1.2 2.8zm2.6 137.8l59.9-10.1a1.5 1.5 0 0 0 1.2-2.1l-10.5-25.2a1.5 1.5 0 0 0-2.3-.6L514.5 319a1.6 1.6 0 0 0 1.2 2.8zm99.2 95.6l35.3-49.5a1.5 1.5 0 0 0-.7-2.3l-25.2-10.4a1.5 1.5 0 0 0-2.1 1.2l-10 59.9a1.5 1.5 0 0 0 2.7 1.1zm137.8-2.5l-10-59.9a1.5 1.5 0 0 0-2.1-1.2l-25.2 10.5a1.4 1.4 0 0 0-.7 2.2L750 416a1.5 1.5 0 0 0 2.7-1.1zm95.7-99.2l-49.5-35.3a1.5 1.5 0 0 0-2.3.7l-10.4 25.2a1.5 1.5 0 0 0 1.1 2.1l60 10a1.5 1.5 0 0 0 1.1-2.7zm-2.5-137.8l-60 10a1.5 1.5 0 0 0-1.1 2.1l10.4 25.2a1.6 1.6 0 0 0 2.3.7l49.5-35.3a1.5 1.5 0 0 0-1.1-2.7z"/></svg>